<?xml version="1.0" encoding="UTF-8"?>
<!DOCTYPE svg PUBLIC "-//W3C//DTD SVG 1.1//EN" "http://www.w3.org/Graphics/SVG/1.1/DTD/svg11.dtd">
<!-- Creator: CorelDRAW -->
<svg xmlns="http://www.w3.org/2000/svg" xml:space="preserve" width="2048px" height="2048px" style="shape-rendering:geometricPrecision; text-rendering:geometricPrecision; image-rendering:optimizeQuality; fill-rule:evenodd; clip-rule:evenodd"
viewBox="0 0 2048 2048"
 xmlns:xlink="http://www.w3.org/1999/xlink">
 <defs>
  <style type="text/css">
   <![CDATA[
    .fil2 {fill:none}
    .fil3 {fill:#00BFA5}
    .fil4 {fill:#1DE9B6}
    .fil1 {fill:#8E24AA}
    .fil0 {fill:#BA68C8}
   ]]>
  </style>
   <clipPath id="id0">
    <path d="M1024 -0.0011811c565.539,0 1024,458.462 1024,1024 0,565.539 -458.462,1024 -1024,1024 -565.539,0 -1024,-458.462 -1024,-1024 0,-565.539 458.462,-1024 1024,-1024z"/>
   </clipPath>
 </defs>
 <g id="Layer_x0020_1">
  <metadata id="CorelCorpID_0Corel-Layer"/>
  <path class="fil0" d="M1024 -0.0011811c565.539,0 1024,458.462 1024,1024 0,565.539 -458.462,1024 -1024,1024 -565.539,0 -1024,-458.462 -1024,-1024 0,-565.539 458.462,-1024 1024,-1024z"/>
  <g style="clip-path:url(#id0)">
   <g id="_466499912">
    <g>
     <polygon id="_4620257841" class="fil1" points="1558.26,483.068 2694.14,1618.95 2695.81,1621.05 2697.36,1623.22 2698.8,1625.44 2700.11,1627.72 2701.3,1630.04 2702.37,1632.41 2703.32,1634.83 2704.14,1637.27 2704.85,1639.75 2705.43,1642.25 2705.89,1644.77 2706.23,1647.31 2706.45,1649.86 2706.54,1652.41 2706.52,1654.97 2706.37,1657.52 2706.1,1660.07 2705.71,1662.6 2705.2,1665.12 2704.56,1667.61 2703.8,1670.08 2702.92,1672.51 2701.92,1674.91 2700.79,1677.27 2699.54,1679.58 2698.17,1681.84 2696.68,1684.05 2695.06,1686.2 2693.32,1688.28 2691.46,1690.29 1555.58,554.409 1557.44,552.396 1559.18,550.315 1560.8,548.169 1562.29,545.963 1563.66,543.701 1564.91,541.388 1566.04,539.03 1567.04,536.631 1567.92,534.195 1568.68,531.728 1569.32,529.235 1569.83,526.718 1570.22,524.184 1570.49,521.639 1570.64,519.085 1570.66,516.528 1570.57,513.974 1570.35,511.425 1570.01,508.887 1569.55,506.365 1568.96,503.865 1568.26,501.389 1567.43,498.943 1566.49,496.532 1565.42,494.162 1564.23,491.835 1562.92,489.558 1561.48,487.334 1559.93,485.169 "/>
     <polygon id="_462037112" class="fil1" points="568.769,480.108 1704.65,1615.99 2159.88,2083.53 1024,947.643 "/>
     <polygon id="_462036392" class="fil1" points="1024,1100.35 2159.88,2236.24 1704.65,2703.77 1702.69,2705.69 1700.65,2707.48 1698.55,2709.15 1696.39,2710.71 1694.17,2712.14 1691.89,2713.45 1689.56,2714.63 1687.19,2715.7 1684.78,2716.65 1682.34,2717.48 1679.86,2718.18 1677.36,2718.76 1674.84,2719.22 1672.31,2719.56 1669.76,2719.78 1667.21,2719.88 1664.65,2719.85 1662.1,2719.7 1659.55,2719.43 1657.02,2719.04 1654.51,2718.53 1652.01,2717.89 1649.55,2717.14 1647.11,2716.26 1644.71,2715.25 1642.36,2714.13 1640.04,2712.88 1637.78,2711.51 1635.58,2710.02 1633.43,2708.4 497.549,1572.52 499.695,1574.14 501.902,1575.63 504.163,1577 506.475,1578.25 508.832,1579.37 511.231,1580.37 513.665,1581.25 516.131,1582.01 518.625,1582.65 521.139,1583.16 523.672,1583.55 526.217,1583.82 528.769,1583.97 531.325,1583.99 533.879,1583.9 536.426,1583.68 538.962,1583.34 541.483,1582.88 543.983,1582.3 546.458,1581.59 548.902,1580.77 551.312,1579.82 553.682,1578.75 556.008,1577.56 558.285,1576.25 560.508,1574.82 562.672,1573.27 564.773,1571.6 566.807,1569.8 568.767,1567.89 "/>
     <polygon id="_462035672" class="fil1" points="1098.35,1024 2234.23,2159.88 2691.46,2629.47 2693.32,2631.49 2695.06,2633.57 2696.68,2635.71 2698.17,2637.92 2699.54,2640.18 2700.79,2642.49 2701.92,2644.85 2702.92,2647.25 2703.8,2649.69 2704.56,2652.15 2705.2,2654.65 2705.71,2657.16 2706.1,2659.7 2706.37,2662.24 2706.52,2664.8 2706.54,2667.35 2706.45,2669.91 2706.23,2672.46 2705.89,2674.99 2705.43,2677.52 2704.85,2680.02 2704.14,2682.49 2703.32,2684.94 2702.37,2687.35 2701.3,2689.72 2700.11,2692.05 2698.8,2694.32 2697.36,2696.55 2695.81,2698.71 2694.14,2700.81 2692.34,2702.85 2690.43,2704.81 2688.41,2706.67 2686.33,2708.4 2684.19,2710.02 2681.98,2711.51 2679.72,2712.88 2677.41,2714.13 2675.05,2715.25 2672.65,2716.26 2670.22,2717.14 2667.75,2717.89 2665.26,2718.53 2662.74,2719.04 2660.21,2719.43 2657.66,2719.7 2655.11,2719.85 2652.56,2719.88 2650,2719.78 2647.45,2719.56 2644.92,2719.22 2642.4,2718.76 2639.9,2718.18 2637.42,2717.48 2634.98,2716.65 2632.57,2715.7 2630.2,2714.64 2627.87,2713.45 2625.6,2712.14 2623.37,2710.71 2621.21,2709.15 2619.11,2707.48 2617.07,2705.69 2615.11,2703.77 1479.23,1567.89 1481.19,1569.8 1483.23,1571.6 1485.33,1573.27 1487.49,1574.82 1489.71,1576.25 1491.99,1577.56 1494.32,1578.75 1496.69,1579.82 1499.1,1580.77 1501.54,1581.59 1504.02,1582.3 1506.52,1582.88 1509.04,1583.34 1511.57,1583.68 1514.12,1583.9 1516.67,1583.99 1519.23,1583.97 1521.78,1583.82 1524.33,1583.55 1526.86,1583.16 1529.38,1582.65 1531.87,1582.01 1534.33,1581.25 1536.77,1580.37 1539.17,1579.37 1541.53,1578.25 1543.84,1577 1546.1,1575.63 1548.3,1574.14 1550.45,1572.52 1552.53,1570.78 1554.54,1568.92 1556.46,1566.96 1558.26,1564.93 1559.93,1562.83 1561.48,1560.66 1562.92,1558.44 1564.23,1556.16 1565.42,1553.84 1566.49,1551.47 1567.43,1549.06 1568.26,1546.61 1568.96,1544.13 1569.55,1541.63 1570.01,1539.11 1570.35,1536.57 1570.57,1534.03 1570.66,1531.47 1570.64,1528.91 1570.49,1526.36 1570.22,1523.81 1569.83,1521.28 1569.32,1518.76 1568.68,1516.27 1567.92,1513.8 1567.04,1511.37 1566.04,1508.97 1564.91,1506.61 1563.66,1504.3 1562.29,1502.04 1560.8,1499.83 1559.18,1497.68 1557.44,1495.6 1555.58,1493.59 "/>
     <polygon id="_462026192" class="fil1" points="1555.58,554.409 2691.46,1690.29 2234.23,2159.88 1098.35,1024 "/>
    </g>
    <path id="_466483928" class="fil1" d="M1479.23 480.108c20.5099,-21.0626 54.2351,-21.5339 75.3131,-1.03465 21.0839,20.5075 21.5551,54.2611 1.03465,75.3355l-457.232 469.59 457.232 469.591c20.5205,21.0744 20.0492,54.828 -1.03465,75.3343 -21.078,20.5004 -54.8032,20.0303 -75.3119,-1.03465l-455.233 -467.535 -455.233 467.535c-20.5087,21.0638 -54.2339,21.5351 -75.3119,1.03465 -21.0839,-20.5063 -21.5551,-54.2587 -1.03465,-75.3343l457.232 -469.591 -457.232 -469.59c-20.5193,-21.0744 -20.0492,-54.828 1.03465,-75.3355 21.078,-20.4992 54.8032,-20.028 75.3131,1.03465l455.231 467.535 455.231 -467.535z"/>
   </g>
  </g>
  <path class="fil2" d="M1024 -0.0011811c565.539,0 1024,458.462 1024,1024 0,565.539 -458.462,1024 -1024,1024 -565.539,0 -1024,-458.462 -1024,-1024 0,-565.539 458.462,-1024 1024,-1024z"/>
  <path class="fil3" d="M1024 947.643l455.231 -467.534c20.5099,-21.065 54.2351,-21.5351 75.3131,-1.03465 21.0839,20.5063 21.5551,54.2599 1.03465,75.3343l-457.232 469.59 -74.3469 76.356 -455.231 467.536c-20.5099,21.0626 -54.2363,21.5339 -75.3142,1.03465 -21.0827,-20.5075 -21.5551,-54.2599 -1.03465,-75.3355l457.233 -469.591 74.3469 -76.356z"/>
  <path class="fil4" d="M568.769 480.109l455.231 467.534 74.3469 76.356 457.233 469.591c20.5205,21.0744 20.048,54.828 -1.03465,75.3355 -21.078,20.4992 -54.8044,20.0291 -75.3142,-1.03465l-455.231 -467.536 -74.3469 -76.356 -457.232 -469.59c-20.5193,-21.0744 -20.0492,-54.828 1.03465,-75.3343 21.078,-20.5004 54.8032,-20.0303 75.3131,1.03465z"/>
 </g>
</svg>
