<?xml version="1.0" encoding="UTF-8"?>
<!DOCTYPE svg PUBLIC "-//W3C//DTD SVG 1.1//EN" "http://www.w3.org/Graphics/SVG/1.1/DTD/svg11.dtd">
<!-- Creator: CorelDRAW -->
<svg xmlns="http://www.w3.org/2000/svg" xml:space="preserve" width="6.82666in" height="6.82666in" style="shape-rendering:geometricPrecision; text-rendering:geometricPrecision; image-rendering:optimizeQuality; fill-rule:evenodd; clip-rule:evenodd"
viewBox="0 0 6.82666 6.82666"
 xmlns:xlink="http://www.w3.org/1999/xlink">
 <defs>
  <style type="text/css">
   <![CDATA[
    .fil3 {fill:none}
    .fil0 {fill:#FF9800}
    .fil1 {fill:#FFFFFE}
    .fil2 {fill:#FFFFFE;fill-rule:nonzero}
   ]]>
  </style>
 </defs>
 <g id="Layer_x0020_1">
  <metadata id="CorelCorpID_0Corel-Layer"/>
  <rect class="fil0" width="6.82666" height="6.82666" rx="0.853335" ry="0.853335"/>
  <g id="_426006656">
   <path id="_426007928" class="fil1" d="M3.41902 2.38694c0.150886,0 0.273201,0.125161 0.273201,0.293425 0,0.168268 -0.122315,0.360909 -0.273201,0.360909 -0.150882,0 -0.273197,-0.192642 -0.273197,-0.360909 0,-0.168264 0.122315,-0.293425 0.273197,-0.293425z"/>
   <path id="_426006896" class="fil2" d="M3.4966 5.48085c0,0.0621102 0.0503504,0.112461 0.112453,0.112461 0.0621102,0 0.112461,-0.0503504 0.112461,-0.112461 -0.00465354,-0.306587 0.00927165,-0.613516 0.0264252,-0.921661 0.00687402,-0.123673 -0.0046063,-0.234425 -0.00755906,-0.347366 -0.00587008,-0.224146 -0.00972047,-0.369193 -0.0116339,-0.53485 -0.000299213,-0.0258071 -0.000555118,-0.0521102 -0.00076378,-0.0792992l-9.05512e-005 -0.00501181c0.196244,0.0813228 0.228106,0.128661 0.493783,0.0915433l-0.0260079 -0.282504c-0.145413,0.0417323 -0.401984,-0.0542559 -0.526882,-0.136642 -0.0729803,-0.0399488 -0.161921,-0.0600039 -0.250941,-0.0601772 -0.0890157,0.000173228 -0.177957,0.0202283 -0.250937,0.0601772 -0.124898,0.0823858 -0.381469,0.178374 -0.526886,0.136642l-0.0260039 0.282504c0.265673,0.0371181 0.297539,-0.0102205 0.493783,-0.0915433l-9.44882e-005 0.00501181c-0.000204724,0.027189 -0.00046063,0.0534921 -0.000759843,0.0792992 -0.00191339,0.165657 -0.00576378,0.310705 -0.0116378,0.53485 -0.00294882,0.112941 -0.0144291,0.223693 -0.00755512,0.347366 0.0171496,0.308146 0.0310787,0.615075 0.0264252,0.921661 0,0.0621102 0.0503504,0.112461 0.112457,0.112461 0.0621063,0 0.112453,-0.0503504 0.112453,-0.112461 0,-1.54937 0.157512,-1.58005 0.157512,0z"/>
   <path id="_426007472" class="fil1" d="M1.75776 1.23335c0.214354,0 0.388122,0.177811 0.388122,0.416862 0,0.239051 -0.173768,0.512732 -0.388122,0.512732 -0.214358,0 -0.388126,-0.273681 -0.388126,-0.512732 0,-0.239051 0.173768,-0.416862 0.388126,-0.416862z"/>
   <path id="_426007352" class="fil2" d="M1.64402 4.34683l0.223118 0 0 1.08672c0,0.0882323 0.0715315,0.159764 0.159768,0.159764 0.0882323,0 0.159756,-0.0715315 0.159756,-0.159764 -0.00661024,-0.435563 0.0131811,-0.575406 0.0375354,-1.01318 0.00505512,-0.0910079 0.00309843,-0.0290079 -0.0005,-0.113146 -0.00107087,-0.0250709 0.0643543,-0.0237756 0.167748,0.036185 -0.181815,-0.323764 -0.192988,-1.24369 -0.195591,-1.58523 0.135547,0.170402 0.165768,0.441177 0.165768,0.829803 0,0.0817953 0.066311,0.148094 0.148098,0.148094 0.0817913,0 0.148094,-0.0662992 0.148094,-0.148094 0,-0.733378 -0.228295,-1.12592 -0.447209,-1.26331 -0.110075,-0.0845669 -0.30078,-0.125705 -0.455028,-0.125201 -0.154248,-0.000503937 -0.344957,0.0406339 -0.455031,0.125201 -0.24728,0.161709 -0.447217,0.529933 -0.447217,1.26331 0,0.0817953 0.0663031,0.148094 0.148094,0.148094 0.0817874,0 0.148098,-0.0662992 0.148098,-0.148094 0,-0.388626 0.0302323,-0.659402 0.165776,-0.829803 -0.00259843,0.341539 -0.0137717,1.26146 -0.195587,1.58523 0.103394,-0.0599606 0.168823,-0.0612717 0.167748,-0.036185 -0.00361811,0.0841417 -0.00555906,0.0221378 -0.0005,0.113146 0.0243543,0.437772 0.0441457,0.577614 0.0375354,1.01318 0,0.0882323 0.0715236,0.159764 0.159756,0.159764 0.0882323,0 0.159768,-0.0715315 0.159768,-0.159764l0 -1.08672z"/>
   <path id="_426007304" class="fil3" d="M1.15342 4.29406c0,0 0.463209,0.131189 0.957476,1.1811e-005"/>
   <g>
    <path id="_426007328" class="fil1" d="M5.06906 1.23335c0.214358,0 0.388126,0.177811 0.388126,0.416858 0,0.239051 -0.173768,0.512732 -0.388126,0.512732 -0.214354,0 -0.388122,-0.273681 -0.388122,-0.512732 0,-0.239047 0.173768,-0.416858 0.388122,-0.416858z"/>
    <path id="_426006296" class="fil2" d="M4.95548 5.43355c0,0.0882323 -0.0715315,0.159768 -0.159768,0.159768 -0.0882323,0 -0.15976,-0.0715354 -0.15976,-0.159768 0.00661417,-0.435563 -0.0131732,-0.871606 -0.0375354,-1.30938 -0.00976772,-0.175709 0.00654331,-0.333039 0.0107362,-0.493488 0.00964567,-0.368039 0.0154291,-0.58598 0.0176063,-0.872504 -0.135547,0.170398 -0.165772,0.441177 -0.165772,0.829803 0,0.0817992 -0.066315,0.148098 -0.148106,0.148098 -0.0817874,0 -0.148098,-0.0662992 -0.148098,-0.148098 0,-0.713232 0.212906,-1.10367 0.432748,-1.252 0.11428,-0.0905669 0.311417,-0.13585 0.471528,-0.135846 0.160106,-3.93701e-006 0.357244,0.0452795 0.471528,0.135846 0.232819,0.150406 0.432744,0.538772 0.432744,1.252 0,0.0817992 -0.066311,0.148098 -0.148098,0.148098 -0.0817874,0 -0.148102,-0.0662992 -0.148102,-0.148098 0,-0.388626 -0.0302244,-0.659406 -0.165772,-0.829803 0.00217323,0.286524 0.00795669,0.504465 0.0176024,0.872504 0.00419685,0.160449 0.0205079,0.31778 0.0107362,0.493488 -0.0243583,0.437772 -0.0441457,0.873815 -0.0375354,1.30938 0,0.0882323 -0.0715276,0.159768 -0.15976,0.159768 -0.0882362,0 -0.159768,-0.0715354 -0.159768,-0.159768 0,-2.19774 -0.227154,-2.25893 -0.227154,0z"/>
   </g>
  </g>
 </g>
</svg>
