<?xml version="1.0" encoding="UTF-8"?>
<!DOCTYPE svg PUBLIC "-//W3C//DTD SVG 1.1//EN" "http://www.w3.org/Graphics/SVG/1.1/DTD/svg11.dtd">
<!-- Creator: CorelDRAW -->
<svg xmlns="http://www.w3.org/2000/svg" xml:space="preserve" width="2048px" height="2048px" style="shape-rendering:geometricPrecision; text-rendering:geometricPrecision; image-rendering:optimizeQuality; fill-rule:evenodd; clip-rule:evenodd"
viewBox="0 0 2048 2048"
 xmlns:xlink="http://www.w3.org/1999/xlink">
 <defs>
  <style type="text/css">
   <![CDATA[
    .fil2 {fill:none}
    .fil11 {fill:#00838F}
    .fil10 {fill:#00ACC1}
    .fil4 {fill:#5D4037}
    .fil3 {fill:#6D4C41}
    .fil8 {fill:#E03431}
    .fil1 {fill:#EC407A}
    .fil7 {fill:#EE403D}
    .fil0 {fill:#F48FB1}
    .fil6 {fill:#FFAB00}
    .fil5 {fill:#FFE57F}
    .fil13 {fill:#80DEEA;fill-rule:nonzero}
    .fil12 {fill:#B2EBF2;fill-rule:nonzero}
    .fil9 {fill:#FFB300;fill-rule:nonzero}
   ]]>
  </style>
   <clipPath id="id0">
    <path d="M1024 0c565.541,0 1024,458.459 1024,1024 0,565.541 -458.459,1024 -1024,1024 -565.541,0 -1024,-458.459 -1024,-1024 0,-565.541 458.459,-1024 1024,-1024z"/>
   </clipPath>
 </defs>
 <g id="Layer_x0020_1">
  <metadata id="CorelCorpID_0Corel-Layer"/>
  <path class="fil0" d="M1024 0c565.541,0 1024,458.459 1024,1024 0,565.541 -458.459,1024 -1024,1024 -565.541,0 -1024,-458.459 -1024,-1024 0,-565.541 458.459,-1024 1024,-1024z"/>
  <g style="clip-path:url(#id0)">
   <g id="_308714344">
    <g>
     <polygon id="_3039008481" class="fil1" points="1362.38,533.183 2498.26,1669.07 2552.75,2029.4 1416.87,893.516 "/>
     <polygon id="_303901448" class="fil1" points="957.8,532.897 2093.68,1668.78 2093.73,1669.07 957.844,533.183 "/>
     <polygon id="_303900992" class="fil1" points="1362.34,532.897 2498.22,1668.78 2498.26,1669.07 1362.38,533.183 "/>
     <polygon id="_303901232" class="fil1" points="957.844,533.183 2093.73,1669.07 2148.21,2029.4 1012.33,893.516 "/>
     <polygon id="_303901592" class="fil1" points="1416.87,893.516 2552.75,2029.4 2238.61,2076.9 1102.73,941.016 "/>
     <polygon id="_303901904" class="fil1" points="1012.33,893.516 2148.21,2029.4 1834.07,2076.9 698.191,941.016 "/>
     <polygon id="_303902168" class="fil1" points="1123.15,1289.7 2259.03,2425.59 2259.03,2687.47 1123.15,1551.58 "/>
     <polygon id="_303901784" class="fil1" points="1123.15,1551.58 2259.03,2687.47 2060.73,2719.88 924.849,1584 "/>
     <polygon id="_303901880" class="fil1" points="1419.59,955.425 2555.47,2091.31 2436.56,2225.39 1300.68,1089.51 "/>
     <polygon id="_303901976" class="fil1" points="1300.68,1089.51 2436.56,2225.39 2261.16,2423.19 1125.28,1287.31 "/>
     <polygon id="_303902000" class="fil1" points="1125.28,1287.31 2261.16,2423.19 2259.03,2425.59 1123.15,1289.7 "/>
    </g>
    <path id="_308714056" class="fil1" d="M1362.38 533.183l54.4843 360.333 -314.138 47.4992 -67.0571 -443.488 221.72 -33.5256 0.0271654 0.0177165 -0.00354331 -0.0212599 7.10079 4.67953 0.13937 0.0921261 97.6831 64.1268 0.0437008 0.285827zm-733.973 422.242l791.181 0 -118.909 134.087 -175.404 197.795 -2.12599 2.39764 0 261.88 -198.303 32.4154 0 -294.296 -2.12717 -2.39764 -175.404 -197.795 -118.908 -134.087zm2.72481 -457.897l221.72 -33.5256 0.0271654 0.0177165 -0.00354331 -0.0212599 7.08071 4.66654 0.159449 0.105118 97.682 64.1268 0.0437008 0.285827 54.4843 360.333 -314.137 47.4992 -67.0571 -443.488z"/>
   </g>
  </g>
  <path class="fil2" d="M1024 0c565.541,0 1024,458.459 1024,1024 0,565.541 -458.459,1024 -1024,1024 -565.541,0 -1024,-458.459 -1024,-1024 0,-565.541 458.459,-1024 1024,-1024z"/>
  <polygon class="fil3" points="1123.15,1289.7 1123.15,1551.58 924.849,1584 924.849,1289.7 628.41,955.425 1419.59,955.425 "/>
  <polygon class="fil4" points="922.722,1287.31 747.317,1089.51 1300.68,1089.51 1125.28,1287.31 "/>
  <polygon class="fil5" points="631.134,497.528 852.855,464.004 957.8,532.897 1012.33,893.516 698.191,941.016 "/>
  <polygon class="fil6" points="852.878,464 957.844,533.183 865.451,547.153 "/>
  <polygon class="fil7" points="727.659,588.56 742.914,689.447 719.682,692.959 704.428,592.073 "/>
  <polygon class="fil8" points="759.814,603.295 772.171,685.023 748.94,688.536 736.582,606.807 "/>
  <polygon class="fil7" points="791.866,617.35 801.429,680.599 778.197,684.112 768.634,620.862 "/>
  <polygon class="fil7" points="817.31,587.71 830.688,676.175 807.455,679.688 794.079,591.223 "/>
  <polygon class="fil8" points="852.524,622.671 859.945,671.751 836.714,675.264 829.292,626.183 "/>
  <polygon class="fil7" points="883.83,631.796 889.203,667.327 865.971,670.839 860.599,635.308 "/>
  <polygon class="fil7" points="908.897,599.654 918.461,662.904 895.229,666.416 885.666,603.167 "/>
  <polygon class="fil9" points="693.847,724.783 952.548,685.666 955.203,703.221 696.503,742.338 "/>
  <polygon class="fil9" points="698.039,752.5 956.74,713.384 959.394,730.939 700.693,770.056 "/>
  <polygon class="fil9" points="702.23,780.218 960.93,741.101 963.584,758.657 704.885,797.773 "/>
  <polygon class="fil9" points="706.421,807.936 965.121,768.819 967.776,786.374 709.075,825.491 "/>
  <polygon class="fil9" points="710.612,835.654 969.313,796.537 971.966,814.092 713.267,853.209 "/>
  <polygon class="fil9" points="714.804,863.371 973.503,824.255 976.158,841.81 717.458,880.927 "/>
  <polygon class="fil9" points="718.994,891.089 977.695,851.972 980.349,869.528 721.648,908.644 "/>
  <polygon class="fil10" points="1035.67,497.528 1257.39,464.004 1362.34,532.897 1416.87,893.516 1102.73,941.016 "/>
  <polygon class="fil11" points="1257.42,464 1362.38,533.183 1269.99,547.153 "/>
  <polygon class="fil8" points="1132.2,588.56 1147.45,689.447 1124.22,692.959 1108.97,592.073 "/>
  <polygon class="fil8" points="1164.35,603.295 1176.71,685.023 1153.48,688.536 1141.12,606.807 "/>
  <polygon class="fil7" points="1196.4,617.35 1205.97,680.599 1182.74,684.112 1173.17,620.862 "/>
  <polygon class="fil7" points="1221.85,587.71 1235.22,676.175 1211.99,679.688 1198.62,591.223 "/>
  <polygon class="fil8" points="1257.06,622.671 1264.48,671.751 1241.25,675.264 1233.83,626.183 "/>
  <polygon class="fil7" points="1288.37,631.796 1293.74,667.327 1270.51,670.839 1265.14,635.308 "/>
  <polygon class="fil7" points="1313.44,599.654 1323,662.904 1299.77,666.416 1290.2,603.167 "/>
  <polygon class="fil12" points="1098.39,724.783 1357.09,685.666 1359.74,703.221 1101.04,742.338 "/>
  <polygon class="fil13" points="1102.58,752.5 1361.28,713.384 1363.93,730.939 1105.23,770.056 "/>
  <polygon class="fil12" points="1106.77,780.218 1365.47,741.101 1368.12,758.657 1109.42,797.773 "/>
  <polygon class="fil13" points="1110.96,807.936 1369.66,768.819 1372.31,786.374 1113.61,825.491 "/>
  <polygon class="fil12" points="1115.15,835.654 1373.85,796.537 1376.5,814.092 1117.8,853.209 "/>
  <polygon class="fil13" points="1119.34,863.371 1378.04,824.255 1380.7,841.81 1122,880.927 "/>
  <polygon class="fil12" points="1123.53,891.089 1382.23,851.972 1384.89,869.528 1126.19,908.644 "/>
 </g>
</svg>
