<?xml version="1.0" encoding="UTF-8"?>
<!DOCTYPE svg PUBLIC "-//W3C//DTD SVG 1.1//EN" "http://www.w3.org/Graphics/SVG/1.1/DTD/svg11.dtd">
<!-- Creator: CorelDRAW -->
<svg xmlns="http://www.w3.org/2000/svg" xml:space="preserve" width="2048px" height="2048px" style="shape-rendering:geometricPrecision; text-rendering:geometricPrecision; image-rendering:optimizeQuality; fill-rule:evenodd; clip-rule:evenodd"
viewBox="0 0 2048 2048"
 xmlns:xlink="http://www.w3.org/1999/xlink">
 <defs>
  <style type="text/css">
   <![CDATA[
    .fil0 {fill:#FF5722}
    .fil1 {fill:#FFFFFE}
   ]]>
  </style>
 </defs>
 <g id="Layer_x0020_1">
  <metadata id="CorelCorpID_0Corel-Layer"/>
  <circle class="fil0" cx="1024" cy="1024" r="1024"/>
  <g id="_374896752">
   <path id="_374896656" class="fil1" d="M1414.53 1047.32l122.599 0 0 46.6489 -122.599 0 0 57.0603c0,23.6268 -7.95119,47.5004 -20.5925,67.3536 -12.75,20.0256 -31.3217,37.4658 -53.4993,46.467l-60.5351 24.5669 257.225 0 0 46.6489 -372.167 0 -610.9 247.93 954.024 0c20.8382,0 39.7666,-8.50867 53.4745,-22.2166 13.7067,-13.7067 22.2166,-32.6362 22.2166,-53.4768l0 -626.51c0,-20.8394 -8.50985,-39.7689 -22.2166,-53.4756 -13.7079,-13.7079 -32.6362,-22.2166 -53.4745,-22.2166l-93.5564 0 0 241.22z"/>
   <path id="_374896584" class="fil1" d="M1156 792.144l161.343 -75.7394 -0.0389764 -0.0826772c11.661,-5.47441 25.552,-0.458268 31.0252,11.2016 1.56732,3.34016 2.2748,6.86457 2.21103,10.3193l0 162.859c0,10.089 -6.40749,18.6827 -15.3744,21.9331l-161.343 75.7406 0.0389764 0.0826772c-11.661,5.47323 -25.552,0.458268 -31.0252,-11.2028 -1.56732,-3.34016 -2.2748,-6.86339 -2.21103,-10.3193l0 -162.858c0,-10.0902 6.40749,-18.6839 15.3744,-21.9343zm235.203 358.885l0 -626.51c0,-9.94489 -1.77874,-19.0323 -5.00079,-26.974 -4.14095,-10.2012 -10.6488,-18.4429 -18.926,-24.2693 -8.56418,-6.02599 -18.6603,-9.2752 -29.6658,-9.2752 -7.51064,0 -15.4075,1.54725 -23.439,4.80473l-834.246 338.574c-9.13347,3.16299 -15.6921,11.837 -15.6921,22.0453l0 730.791c-0.0625985,3.06969 0.484252,6.20197 1.7126,9.22678 4.8437,11.9362 18.4465,17.6847 30.3827,12.841l-0.0106299 -0.0248032 835.346 -339.02c16.8957,-6.8563 31.9524,-20.6634 42.5965,-37.3807 10.4539,-16.4197 16.9429,-36.0177 16.9429,-54.828z"/>
  </g>
 </g>
</svg>
