<?xml version="1.0" encoding="UTF-8"?>
<!DOCTYPE svg PUBLIC "-//W3C//DTD SVG 1.1//EN" "http://www.w3.org/Graphics/SVG/1.1/DTD/svg11.dtd">
<!-- Creator: CorelDRAW -->
<svg xmlns="http://www.w3.org/2000/svg" xml:space="preserve" width="2048px" height="2048px" style="shape-rendering:geometricPrecision; text-rendering:geometricPrecision; image-rendering:optimizeQuality; fill-rule:evenodd; clip-rule:evenodd"
viewBox="0 0 2048 2048"
 xmlns:xlink="http://www.w3.org/1999/xlink">
 <defs>
  <style type="text/css">
   <![CDATA[
    .fil2 {fill:none}
    .fil6 {fill:#039BE5}
    .fil9 {fill:#78909C}
    .fil1 {fill:#D6B347}
    .fil8 {fill:#ECEFF1}
    .fil0 {fill:#FFD54F}
    .fil4 {fill:#0394DE;fill-rule:nonzero}
    .fil3 {fill:#039BE5;fill-rule:nonzero}
    .fil5 {fill:#29B6F6;fill-rule:nonzero}
    .fil7 {fill:#ECEFF1;fill-rule:nonzero}
   ]]>
  </style>
   <clipPath id="id0">
    <path d="M1024 -0.0011811c565.539,0 1024,458.462 1024,1024 0,565.539 -458.462,1024 -1024,1024 -565.539,0 -1024,-458.462 -1024,-1024 0,-565.539 458.462,-1024 1024,-1024z"/>
   </clipPath>
 </defs>
 <g id="Layer_x0020_1">
  <metadata id="CorelCorpID_0Corel-Layer"/>
  <path class="fil0" d="M1024 -0.0011811c565.539,0 1024,458.462 1024,1024 0,565.539 -458.462,1024 -1024,1024 -565.539,0 -1024,-458.462 -1024,-1024 0,-565.539 458.462,-1024 1024,-1024z"/>
  <g style="clip-path:url(#id0)">
   <g id="_451251032">
    <g>
     <path id="_2863595921" class="fil1" d="M1847.98 1837.82l0 0zm-1135.88 -1135.88l0 0z"/>
     <polygon id="_286359112" class="fil1" points="1053.37,670.085 2189.25,1805.97 2189.04,1805.99 2188.84,1806 2188.63,1806.02 2188.42,1806.03 2188.21,1806.04 2188,1806.05 2187.78,1806.05 2187.57,1806.05 1051.69,670.172 1051.9,670.171 1052.11,670.166 1052.33,670.16 1052.54,670.15 1052.75,670.138 1052.95,670.123 1053.16,670.105 "/>
     <polygon id="_286361392" class="fil1" points="1113.3,516.733 2249.18,1652.62 2247.93,1651.89 2246.46,1651.65 2244.81,1651.88 2242.97,1652.53 2240.97,1653.6 2238.82,1655.04 2236.53,1656.82 2234.11,1658.94 2231.59,1661.34 2228.97,1664.02 2226.27,1666.93 2223.5,1670.06 2220.67,1673.36 2217.81,1676.83 2214.92,1680.42 2212.02,1684.12 2209.12,1687.89 2206.24,1691.7 2203.38,1695.54 2200.57,1699.36 2197.82,1703.15 2195.14,1706.87 2192.54,1710.5 2190.05,1714.01 2187.67,1717.37 2185.41,1720.56 2183.3,1723.54 2181.34,1726.3 2179.56,1728.79 2177.95,1731 2176.55,1732.9 2175.35,1734.45 1039.47,598.569 1040.67,597.015 1042.07,595.118 1043.68,592.908 1045.46,590.413 1047.42,587.659 1049.53,584.676 1051.79,581.489 1054.17,578.126 1056.66,574.616 1059.26,570.987 1061.94,567.265 1064.69,563.477 1067.5,559.654 1070.35,555.821 1073.24,552.006 1076.14,548.236 1079.04,544.542 1081.93,540.946 1084.79,537.481 1087.62,534.173 1090.39,531.048 1093.09,528.134 1095.71,525.461 1098.23,523.054 1100.65,520.942 1102.94,519.153 1105.09,517.713 1107.09,516.651 1108.93,515.994 1110.58,515.771 1112.05,516.007 "/>
     <polygon id="_286361848" class="fil1" points="1051.69,670.172 2187.57,1806.05 2176.74,1806.05 1040.86,670.172 "/>
     <polygon id="_286362712" class="fil1" points="974.907,629.331 2110.79,1765.21 2111.75,1766.25 2112.65,1767.37 2113.51,1768.57 2114.31,1769.85 2115.06,1771.21 2115.74,1772.64 2116.37,1774.13 980.487,638.247 979.863,636.754 979.177,635.326 978.431,633.97 977.629,632.687 976.771,631.485 975.864,630.364 "/>
     <polygon id="_286362472" class="fil1" points="1183.45,530.85 2319.33,1666.73 2320.52,1668.78 2321.47,1670.89 2322.2,1673.05 2322.7,1675.25 2322.99,1677.47 2323.05,1679.7 2322.91,1681.91 2322.55,1684.09 2321.99,1686.24 2321.22,1688.32 2320.26,1690.32 2319.09,1692.24 2317.74,1694.04 2316.19,1695.72 2314.46,1697.26 2312.55,1698.65 1176.67,562.766 1178.58,561.382 1180.31,559.841 1181.86,558.16 1183.21,556.354 1184.37,554.441 1185.34,552.435 1186.11,550.354 1186.67,548.213 1187.03,546.028 1187.17,543.814 1187.1,541.59 1186.82,539.37 1186.32,537.169 1185.59,535.006 1184.63,532.894 "/>
     <polygon id="_286362688" class="fil1" points="1393.11,751.318 2528.99,1887.2 2530.54,1889.08 2532.09,1891.01 2533.65,1892.96 2535.22,1894.95 2536.8,1896.97 2538.38,1899.03 2539.97,1901.12 2541.56,1903.25 2543.15,1905.42 2544.75,1907.62 2546.36,1909.85 2547.96,1912.13 2549.57,1914.43 2551.18,1916.78 2552.79,1919.16 2554.39,1921.58 2556,1924.03 2557.61,1926.53 2559.22,1929.06 2560.82,1931.62 2562.42,1934.23 2564.02,1936.87 2565.61,1939.55 2567.2,1942.26 2568.79,1945.02 2570.37,1947.81 2571.94,1950.65 2573.5,1953.52 2575.06,1956.43 2576.61,1959.38 2578.16,1962.37 2579.69,1965.39 1443.81,829.51 1442.27,826.483 1440.73,823.495 1439.18,820.546 1437.62,817.635 1436.06,814.764 1434.49,811.932 1432.91,809.137 1431.32,806.382 1429.73,803.664 1428.14,800.985 1426.54,798.343 1424.94,795.739 1423.34,793.173 1421.73,790.644 1420.12,788.153 1418.51,785.697 1416.9,783.279 1415.29,780.898 1413.69,778.553 1412.08,776.245 1410.47,773.972 1408.87,771.736 1407.27,769.536 1405.68,767.371 1404.09,765.242 1402.5,763.147 1400.92,761.089 1399.34,759.066 1397.77,757.077 1396.21,755.123 1394.66,753.203 "/>
     <polygon id="_286362088" class="fil1" points="1121.81,525.13 2257.69,1661.01 2256.63,1659.85 2255.57,1658.72 2254.51,1657.62 2253.44,1656.55 2252.38,1655.51 2251.31,1654.51 2250.25,1653.54 2249.18,1652.62 1113.3,516.733 1114.36,517.66 1115.43,518.625 1116.49,519.629 1117.56,520.666 1118.63,521.737 1119.69,522.84 1120.75,523.972 "/>
     <polygon id="_286362112" class="fil1" points="1176.67,562.766 2312.55,1698.65 2310.51,1699.83 2308.4,1700.79 2306.23,1701.52 2304.03,1702.02 2301.81,1702.3 2299.59,1702.37 2297.37,1702.22 2295.19,1701.87 2293.05,1701.3 2290.97,1700.54 2288.96,1699.57 2287.05,1698.41 2285.24,1697.06 2283.56,1695.51 1147.68,559.629 1149.36,561.174 1151.17,562.529 1153.08,563.691 1155.09,564.657 1157.17,565.422 1159.31,565.986 1161.49,566.341 1163.71,566.488 1165.93,566.421 1168.15,566.137 1170.35,565.633 1172.52,564.905 1174.63,563.951 "/>
     <polygon id="_286362160" class="fil1" points="1039.47,598.569 2175.35,1734.45 2176.12,1774.13 1040.24,638.247 "/>
     <polygon id="_286362232" class="fil1" points="994.628,670.172 2130.51,1806.05 2115,1806.05 979.122,670.172 "/>
     <polygon id="_286362304" class="fil1" points="902.759,1015.12 2038.64,2151.01 2031.05,2149.81 2023.51,2148.55 2016.02,2147.23 2008.57,2145.84 2001.19,2144.4 1993.85,2142.9 1986.58,2141.35 1979.36,2139.74 1972.21,2138.08 1965.13,2136.36 1958.11,2134.59 1951.16,2132.78 1944.28,2130.92 1937.48,2129.01 1930.75,2127.05 1924.11,2125.06 1917.54,2123.02 1911.06,2120.94 1904.66,2118.82 1898.36,2116.66 1892.14,2114.47 1886.02,2112.24 1879.99,2109.98 1874.06,2107.69 1868.23,2105.36 1862.5,2103.01 1856.88,2100.63 1851.37,2098.22 1845.96,2095.79 1840.67,2093.33 1835.49,2090.85 1830.42,2088.35 694.541,952.469 699.604,954.969 704.784,957.448 710.079,959.905 715.485,962.338 721.001,964.746 726.623,967.128 732.35,969.481 738.18,971.806 744.11,974.1 750.138,976.36 756.26,978.589 762.477,980.781 768.784,982.938 775.178,985.057 781.66,987.137 788.225,989.175 794.872,991.172 801.597,993.126 808.4,995.035 815.277,996.897 822.226,998.711 829.244,1000.48 836.331,1002.19 843.483,1003.86 850.697,1005.47 857.971,1007.02 865.305,1008.52 872.692,1009.96 880.135,1011.34 887.629,1012.67 895.17,1013.93 "/>
     <polygon id="_286362496" class="fil1" points="694.541,952.469 1830.42,2088.35 1826.98,2086.61 1823.41,2084.76 1819.73,2082.8 1815.96,2080.75 1812.11,2078.6 1808.19,2076.35 1804.23,2074.01 1800.24,2071.57 1796.23,2069.04 1792.21,2066.41 1788.21,2063.7 1784.24,2060.9 1780.32,2058 1776.45,2055.03 1772.66,2051.96 1768.96,2048.82 1765.36,2045.59 629.483,909.711 633.078,912.937 636.78,916.083 640.57,919.145 644.437,922.122 648.363,925.013 652.333,927.817 656.332,930.531 660.344,933.155 664.355,935.688 668.349,938.127 672.31,940.471 676.224,942.72 680.075,944.871 683.847,946.922 687.526,948.874 691.095,950.723 "/>
     <polygon id="_286363000" class="fil1" points="1151.52,1583.97 2287.4,2719.85 2286.21,2719.88 1150.33,1584 "/>
     <polygon id="_286363408" class="fil1" points="1150.33,1584 2286.21,2719.88 2153.74,2719.88 1017.86,1584 "/>
     <polygon id="_286363432" class="fil1" points="1017.86,1584 2153.74,2719.88 2033.56,2719.88 897.674,1584 "/>
     <polygon id="_286363504" class="fil1" points="897.674,1584 2033.56,2719.88 2031.19,2719.76 2028.89,2719.41 2026.67,2718.84 2024.55,2718.06 2022.52,2717.09 2020.61,2715.93 2018.83,2714.6 882.951,1578.72 884.734,1580.05 886.642,1581.21 888.666,1582.18 890.792,1582.96 893.01,1583.53 895.308,1583.88 "/>
     <polygon id="_286362928" class="fil1" points="1145.24,1015.12 2281.12,2151.01 2309.26,2695.55 1173.38,1559.66 "/>
     <polygon id="_286363192" class="fil1" points="1173.44,1559.66 2309.32,2695.54 2309.32,2697.91 2309.09,2700.23 2308.64,2702.47 2307.97,2704.63 2307.1,2706.7 2306.04,2708.67 2304.8,2710.52 2303.4,2712.24 2301.83,2713.81 2300.12,2715.24 2298.27,2716.49 2296.3,2717.57 2294.22,2718.46 2292.03,2719.14 2289.76,2719.61 2287.4,2719.85 1151.52,1583.97 1153.88,1583.73 1156.15,1583.26 1158.34,1582.58 1160.42,1581.69 1162.39,1580.61 1164.24,1579.35 1165.95,1577.93 1167.51,1576.35 1168.92,1574.64 1170.16,1572.79 1171.22,1570.82 1172.09,1568.75 1172.76,1566.59 1173.21,1564.34 1173.44,1562.03 "/>
     <polygon id="_286363240" class="fil1" points="979.122,670.172 2115,1806.05 2114.85,1806.05 2114.7,1806.05 2114.55,1806.05 2114.41,1806.04 2114.26,1806.04 2114.11,1806.03 2113.96,1806.02 2113.81,1806.01 977.932,670.128 978.08,670.139 978.228,670.147 978.376,670.156 978.524,670.162 978.673,670.166 978.822,670.17 978.972,670.171 "/>
     <polygon id="_286363360" class="fil1" points="977.932,670.128 2113.81,1806.01 2113.17,1806.97 2112.5,1807.88 2111.79,1808.75 2111.06,1809.56 2110.3,1810.31 2109.51,1811.01 2108.7,1811.66 2107.86,1812.24 2107,1812.76 2106.12,1813.22 2105.22,1813.61 2104.3,1813.94 2103.37,1814.2 2102.41,1814.38 2101.44,1814.5 2100.46,1814.53 2098.59,1814.4 2096.77,1813.99 2095.02,1813.32 2093.34,1812.41 2091.74,1811.28 2090.23,1809.92 954.346,674.039 955.855,675.393 957.455,676.53 959.139,677.438 960.892,678.103 962.711,678.513 964.583,678.652 965.564,678.615 966.531,678.501 967.484,678.316 968.421,678.058 969.34,677.732 970.24,677.339 971.121,676.88 971.979,676.358 972.817,675.774 973.629,675.132 974.417,674.43 975.178,673.674 975.911,672.864 976.616,672.001 977.29,671.089 "/>
     <polygon id="_286363072" class="fil1" points="1040.86,670.172 2176.74,1806.05 2177.35,1837.82 1041.47,701.937 "/>
     <polygon id="_337065816" class="fil1" points="1076.99,629.245 2212.87,1765.13 2214.28,1766.68 2215.58,1768.42 2216.76,1770.34 2217.81,1772.42 2218.73,1774.65 2219.5,1777.01 2220.12,1779.49 2220.57,1782.08 2220.85,1784.76 2220.94,1787.52 2220.85,1790.29 2220.57,1792.97 2220.12,1795.56 2219.5,1798.04 2218.73,1800.4 2217.81,1802.63 2216.76,1804.71 2215.58,1806.62 2214.28,1808.37 2212.87,1809.92 2211.36,1811.28 2209.76,1812.41 2208.07,1813.32 2206.32,1813.99 2204.5,1814.4 2202.63,1814.53 2201.65,1814.5 2200.68,1814.38 2199.72,1814.2 2198.78,1813.94 2197.86,1813.61 2196.96,1813.21 2196.07,1812.75 2195.21,1812.23 2194.38,1811.64 2193.56,1811 2192.77,1810.29 2192.01,1809.53 1056.13,673.648 1056.89,674.409 1057.68,675.113 1058.49,675.759 1059.33,676.346 1060.19,676.87 1061.08,677.332 1061.98,677.728 1062.9,678.055 1063.84,678.314 1064.79,678.5 1065.76,678.615 1066.75,678.652 1068.62,678.513 1070.44,678.103 1072.19,677.438 1073.88,676.53 1075.48,675.393 1076.99,674.039 1078.4,672.485 1079.7,670.741 1080.88,668.823 1081.93,666.743 1082.85,664.517 1083.62,662.156 1084.24,659.673 1084.69,657.086 1084.96,654.403 1085.06,651.642 1084.96,648.88 1084.69,646.198 1084.24,643.61 1083.62,641.128 1082.85,638.767 1081.93,636.54 1080.88,634.46 1079.7,632.542 1078.4,630.799 "/>
     <polygon id="_337065384" class="fil1" points="1157.49,495.821 2293.37,1631.7 2294.72,1633.26 2296.07,1634.84 2297.4,1636.44 2298.72,1638.04 2300.02,1639.66 2301.3,1641.29 2302.57,1642.92 2303.83,1644.56 2305.06,1646.2 2306.28,1647.84 2307.48,1649.47 2308.67,1651.11 2309.83,1652.73 2310.97,1654.35 2312.09,1655.96 2313.2,1657.56 2314.28,1659.14 2315.33,1660.7 2316.37,1662.24 2317.38,1663.76 2318.37,1665.26 2319.33,1666.73 1183.45,530.85 1182.49,529.379 1181.5,527.881 1180.49,526.359 1179.45,524.816 1178.39,523.254 1177.31,521.673 1176.21,520.079 1175.09,518.47 1173.95,516.852 1172.78,515.224 1171.6,513.591 1170.4,511.954 1169.18,510.313 1167.95,508.674 1166.69,507.037 1165.42,505.404 1164.14,503.777 1162.83,502.16 1161.52,500.554 1160.19,498.961 1158.84,497.381 "/>
     <polygon id="_337065240" class="fil1" points="1384.45,741.177 2520.33,1877.06 2521.75,1878.67 2523.18,1880.32 2524.62,1881.99 2526.07,1883.7 2527.53,1885.43 2528.99,1887.2 1393.11,751.318 1391.65,749.551 1390.19,747.816 1388.74,746.11 1387.3,744.435 1385.87,742.791 "/>
     <polygon id="_337065144" class="fil1" points="1443.81,829.51 2579.69,1965.39 2580.37,1966.79 2581,1968.2 2581.59,1969.61 2582.13,1971.03 2582.63,1972.44 2583.09,1973.87 2583.5,1975.3 2583.87,1976.73 2584.19,1978.17 2584.47,1979.61 2584.71,1981.06 2584.9,1982.5 2585.05,1983.96 2585.16,1985.41 2585.22,1986.88 2585.24,1988.34 1449.36,852.457 1449.34,850.993 1449.27,849.532 1449.17,848.076 1449.02,846.622 1448.83,845.173 1448.59,843.727 1448.31,842.286 1447.99,840.849 1447.62,839.416 1447.21,837.987 1446.75,836.562 1446.25,835.143 1445.71,833.727 1445.12,832.316 1444.49,830.911 "/>
     <polygon id="_337065168" class="fil1" points="1449.36,852.457 2585.24,1988.34 2585.21,1990.13 2585.12,1991.91 2584.96,1993.7 2584.75,1995.49 2584.48,1997.27 2584.14,1999.06 2583.75,2000.84 2583.29,2002.62 2582.78,2004.4 2582.21,2006.18 2581.59,2007.96 2580.9,2009.74 2580.16,2011.51 2579.36,2013.28 2578.5,2015.05 2577.59,2016.81 2576.62,2018.57 2575.59,2020.33 2574.51,2022.08 2573.38,2023.84 2572.19,2025.58 2570.95,2027.32 2569.65,2029.06 2568.3,2030.8 2566.9,2032.53 2565.45,2034.25 2563.94,2035.97 2562.38,2037.68 2560.77,2039.39 2559.11,2041.09 2557.4,2042.79 2555.63,2044.48 1419.75,908.594 1421.52,906.904 1423.23,905.209 1424.89,903.507 1426.5,901.8 1428.06,900.086 1429.56,898.367 1431.02,896.643 1432.42,894.915 1433.77,893.181 1435.07,891.442 1436.31,889.7 1437.5,887.953 1438.63,886.202 1439.71,884.448 1440.74,882.689 1441.71,880.928 1442.62,879.164 1443.47,877.396 1444.28,875.626 1445.02,873.853 1445.7,872.078 1446.33,870.301 1446.9,868.522 1447.41,866.741 1447.87,864.959 1448.26,863.175 1448.59,861.389 1448.87,859.605 1449.08,857.818 1449.24,856.031 1449.33,854.244 "/>
     <polygon id="_337065192" class="fil1" points="1419.75,908.594 2555.63,2044.48 2554.13,2045.88 2552.58,2047.29 2550.99,2048.69 2549.36,2050.1 2547.7,2051.5 2545.99,2052.9 2544.25,2054.3 2542.48,2055.7 2540.66,2057.1 2538.81,2058.49 2536.92,2059.89 2534.99,2061.28 2533.03,2062.67 2531.04,2064.05 2529,2065.44 2526.94,2066.82 2524.84,2068.19 2522.7,2069.57 2520.53,2070.94 2518.32,2072.3 2516.09,2073.67 2513.82,2075.03 2511.51,2076.38 2509.18,2077.73 2506.81,2079.08 2504.41,2080.42 2501.97,2081.75 2499.51,2083.08 2497.01,2084.41 2494.49,2085.73 2491.93,2087.04 2489.34,2088.35 1353.46,952.466 1356.05,951.159 1358.61,949.844 1361.13,948.525 1363.63,947.2 1366.09,945.87 1368.52,944.534 1370.93,943.194 1373.29,941.848 1375.63,940.498 1377.94,939.144 1380.21,937.785 1382.44,936.422 1384.65,935.056 1386.82,933.685 1388.96,932.311 1391.06,930.934 1393.12,929.553 1395.16,928.17 1397.15,926.783 1399.11,925.396 1401.04,924.004 1402.93,922.611 1404.78,921.216 1406.59,919.817 1408.37,918.419 1410.11,917.018 1411.82,915.616 1413.48,914.214 1415.11,912.81 1416.7,911.405 1418.24,910 "/>
     <polygon id="_337065336" class="fil1" points="1353.46,952.466 2489.34,2088.35 2484.28,2090.85 2479.1,2093.33 2473.81,2095.79 2468.4,2098.22 2462.88,2100.63 2457.26,2103.01 2451.53,2105.36 2445.7,2107.69 2439.77,2109.98 2433.75,2112.24 2427.62,2114.47 2421.41,2116.66 2415.1,2118.82 2408.71,2120.94 2402.22,2123.02 2395.66,2125.06 2389.01,2127.05 2382.29,2129.01 2375.48,2130.92 2368.61,2132.78 2361.66,2134.59 2354.64,2136.36 2347.55,2138.07 2340.4,2139.74 2333.19,2141.35 2325.91,2142.9 2318.58,2144.4 2311.19,2145.84 2303.75,2147.23 2296.25,2148.55 2288.71,2149.81 2281.12,2151.01 1145.24,1015.12 1152.83,1013.93 1160.37,1012.67 1167.87,1011.34 1175.31,1009.96 1182.7,1008.52 1190.03,1007.02 1197.3,1005.47 1204.52,1003.86 1211.67,1002.19 1218.76,1000.48 1225.78,998.711 1232.73,996.897 1239.6,995.035 1246.41,993.126 1253.13,991.172 1259.78,989.175 1266.34,987.135 1272.82,985.057 1279.22,982.938 1285.53,980.781 1291.74,978.588 1297.87,976.359 1303.89,974.097 1309.82,971.804 1315.65,969.479 1321.38,967.126 1327,964.744 1332.52,962.336 1337.92,959.903 1343.22,957.446 1348.4,954.967 "/>
    </g>
    <path id="_451251176" class="fil1" d="M712.095 701.939l0 0zm372.963 -50.2973c0,14.9173 -8.19686,27.0107 -18.3106,27.0107 -5.27835,0 -10.0358,-3.29528 -13.3772,-8.56772 -0.551575,0.0578741 -1.1126,0.0874016 -1.67953,0.0874016l-10.8331 0 0.615355 31.7646 294.431 0c6.69449,0 12.724,2.8441 16.95,7.3878 10.2461,9.24331 24.5764,22.9878 40.2567,41.9929 16.4433,19.9276 34.3961,45.6874 50.6965,78.1926 3.73937,7.45749 5.55119,15.1299 5.55119,22.9465 0,19.063 -10.5413,38.1485 -29.6055,56.1378 -15.8906,14.9941 -38.5382,29.954 -66.2906,43.8721 -53.3847,26.7732 -127.036,50.23 -208.221,62.6575l28.1386 544.541 0.0602363 -0.00354331c0.659056,12.7654 -9.15473,23.6492 -21.9201,24.3083l-1.1941 0.0318898 -132.464 0 -120.188 0c-12.7819,0 -23.1449,-10.363 -23.1449,-23.1461 0,-0.976772 0.0614174,-1.93819 0.178347,-2.88307l28.0512 -542.848c-81.1831,-12.4276 -154.833,-35.8831 -208.218,-62.6552 -36.0331,-18.0697 -95.8997,-54.0095 -95.8997,-100.012 0,-7.81654 1.81181,-15.489 5.55119,-22.9465 16.3004,-32.5051 34.2532,-58.265 50.6965,-78.1926 16.5047,-20.002 31.5118,-34.1776 41.8359,-43.4126l-0.0614174 -0.0720473c4.41851,-3.95315 9.93544,-5.89607 15.4323,-5.89607l283.208 0 -0.675591 -31.7646 -15.5067 0c-0.400394,0 -0.796064,-0.0141732 -1.18937,-0.0437008 -3.33898,5.24646 -8.08465,8.52402 -13.3488,8.52402 -10.1138,0 -18.3095,-12.0933 -18.3095,-27.0107 0,-14.9173 8.19568,-27.0107 18.3095,-27.0107 6.80788,0 12.7488,5.4815 15.9036,13.6158l13.4634 0 -0.988583 -46.467c-0.237402,-6.14056 1.94173,-11.8146 5.68819,-16.1067l73.2367 -92.8642c22.2106,-28.1622 47.6445,-21.4512 71.4296,-1.1563 15.5823,13.2945 29.9882,33.6425 40.1339,49.1977 6.94016,10.6854 3.90473,24.9756 -6.78071,31.9158 -10.6843,6.94016 -24.9744,3.90473 -31.9146,-6.78071 -8.42363,-12.9142 -20.1201,-29.5819 -31.454,-39.2528 -12.2303,-10.4362 -62.2607,67.1682 -73.8296,81.8363l0.768898 39.678 10.6039 0c3.15473,-8.13426 9.09568,-13.6158 15.9036,-13.6158 10.1138,0 18.3106,12.0933 18.3106,27.0107z"/>
   </g>
  </g>
  <path class="fil2" d="M1024 -0.0011811c565.539,0 1024,458.462 1024,1024 0,565.539 -458.462,1024 -1024,1024 -565.539,0 -1024,-458.462 -1024,-1024 0,-565.539 458.462,-1024 1024,-1024z"/>
  <path class="fil3" d="M1144.87 1007.91l-24.2303 -21.8799 -193.276 0c-12.7335,-0.648426 -23.5819,9.14764 -24.2303,21.8799l-28.4244 550.067c-0.116929,0.944883 -0.178347,1.9063 -0.178347,2.88307 0,12.7831 10.363,23.1461 23.1449,23.1461l252.652 0c0.39567,-0.0011811 0.793701,-0.011811 1.1941,-0.0318898 12.7654,-0.659056 22.5792,-11.5429 21.9201,-24.3083l-0.0602363 0.00354331 -28.5118 -551.759z"/>
  <path class="fil4" d="M1017.86 986.025l-90.4997 0c-12.7335,-0.648426 -23.5819,9.14764 -24.2303,21.8799l-28.4244 550.067c-0.116929,0.944883 -0.178347,1.9063 -0.178347,2.88307 0,12.7831 10.363,23.1461 23.1449,23.1461l120.188 0 0 -597.976z"/>
  <path class="fil5" d="M1352.85 709.325c10.2461,9.24331 24.5764,22.9878 40.2567,41.9929 16.4433,19.9276 34.3961,45.6874 50.6965,78.1926 3.73937,7.45749 5.55119,15.1299 5.55119,22.9465 0,19.063 -10.5413,38.1485 -29.6055,56.1378 -15.8906,14.9941 -38.5382,29.954 -66.2906,43.8721 -79.1209,39.6803 -202.759,72.0756 -329.463,72.0756 -126.702,0 -250.337,-32.3941 -329.459,-72.0733 -36.0331,-18.0697 -95.8997,-54.0095 -95.8997,-100.012 0,-7.81654 1.81181,-15.489 5.55119,-22.9465 16.3004,-32.5051 34.2532,-58.265 50.6965,-78.1926 16.5047,-20.002 31.5118,-34.1776 41.8359,-43.4126l15.3709 17.178 -15.4323 -17.25c4.41851,-3.95315 9.93544,-5.89607 15.4323,-5.89371l0 -0.00236221 623.809 0c6.69449,0 12.724,2.8441 16.95,7.3878z"/>
  <path class="fil6" d="M1327.06 748.229l-606.126 0c-8.43426,5.18386 -19.024,12.1902 -30.4276,21.2681 -14.6492,11.6599 -30.6248,26.7095 -45.0898,45.6544 -0.327166,0.42874 -0.486615,0.94252 -0.486615,1.53189 0,3.7252 5.32678,8.81221 14.9587,14.7815 12.8067,7.93583 31.689,16.0618 55.2626,23.8264 73.5627,24.2303 189.318,44.0103 308.846,44.0103 119.531,0 235.288,-19.7811 308.849,-44.0115 23.5713,-7.76457 42.4548,-15.8906 55.2603,-23.8264 9.63072,-5.9693 14.9575,-11.0551 14.9575,-14.7803 0,-0.589371 -0.159449,-1.10315 -0.486615,-1.53189 -14.465,-18.9449 -30.4406,-33.9945 -45.0898,-45.6544 -11.4036,-9.07796 -21.9933,-16.0843 -30.4276,-21.2681z"/>
  <path class="fil7" d="M995.607 716.207c0.448819,12.7335 10.0063,14.1024 22.7386,13.6524 12.7335,-0.448819 23.8205,-2.54764 23.3717,-15.2799l-2.24646 -116.01c11.5689,-14.6681 61.5993,-92.2725 73.8296,-81.8363 11.3339,9.67087 23.0303,26.3386 31.454,39.2528 6.94016,10.6854 21.2303,13.7209 31.9146,6.78071 10.6854,-6.94016 13.7209,-21.2303 6.78071,-31.9158 -10.1457,-15.5551 -24.5516,-35.9032 -40.1339,-49.1977 -23.7851,-20.2949 -49.2189,-27.0059 -71.4296,1.1563l-73.2367 92.8642c-3.74646,4.29213 -5.9256,9.96615 -5.68819,16.1067l2.64567 124.427zm180.148 -174.765c3.43111,3.0567 3.17481,8.94331 -0.571654,13.1492 -3.74646,4.20473 -9.56457,5.1378 -12.9957,2.0811 -3.43111,-3.0567 -3.17599,-8.94331 0.570473,-13.1492 3.74646,-4.20591 9.56457,-5.1378 12.9969,-2.0811z"/>
  <path class="fil7" d="M979.123 638.247c-8.81575,0 -15.9626,7.14686 -15.9626,15.9626 0,8.81575 7.14686,15.9626 15.9626,15.9626l72.5682 0c8.81457,0 15.9614,-7.14686 15.9614,-15.9626 0,-8.81575 -7.14686,-15.9626 -15.9614,-15.9626l-72.5682 0z"/>
  <ellipse class="fil8" cx="964.583" cy="651.642" rx="18.3098" ry="27.0106"/>
  <ellipse class="fil8" cx="1066.75" cy="651.642" rx="18.3098" ry="27.0106"/>
  <ellipse class="fil8" cx="1018.2" cy="723.452" rx="56.3939" ry="12.7845"/>
  <path class="fil9" d="M1159.23 559.995c4.92993,4.39134 13.2886,3.05315 18.6697,-2.98937 5.38229,-6.04134 5.74961,-14.498 0.820867,-18.8894 -4.92993,-4.39134 -13.2886,-3.05197 -18.6697,2.98937 -5.38229,6.04134 -5.74961,14.4992 -0.820867,18.8894z"/>
 </g>
</svg>
