<?xml version="1.0" encoding="utf-8"?>
<!-- Generator: Adobe Illustrator 19.2.1, SVG Export Plug-In . SVG Version: 6.00 Build 0)  -->
<svg version="1.1" id="Layer_2" xmlns="http://www.w3.org/2000/svg" xmlns:xlink="http://www.w3.org/1999/xlink" x="0px" y="0px"
	 viewBox="0 0 80.3 80.3" style="enable-background:new 0 0 80.3 80.3;" xml:space="preserve">
<style type="text/css">
	.st0{fill:#EB6A5C;}
	.st1{fill:#552F2F;}
	.st2{fill:#2384AB;}
	.st3{fill:#FFFFFF;}
	.st4{fill:#0C2C48;}
	.st5{fill:#F6A09C;}
	.st6{fill:#61C3AF;}
	.st7{fill:#2F4555;}
	.st8{fill:#55AB99;}
	.st9{fill:#ED6B5A;}
	.st10{fill:#2484AD;}
	.st11{fill:#FCA886;}
	.st12{fill:#F1CC4B;}
	.st13{fill:#6EB9E0;}
	.st14{fill:#50646F;}
	.st15{fill:#EDC84A;}
	.st16{fill:#E7543A;}
	.st17{fill:#F38D80;}
	.st18{fill:#F2F2F2;}
	.st19{fill:#81CAFF;}
	.st20{clip-path:url(#SVGID_4_);fill:#55AB99;}
	.st21{fill:#BABFC5;}
	.st22{fill:#BBC2C7;}
</style>
<g>
	<circle class="st5" cx="40.2" cy="40.2" r="40.2"/>
	<circle class="st16" cx="40.2" cy="40.2" r="29.5"/>
	<g>
		<g>
			<path class="st4" d="M38.6,61C29.4,61,22,53.5,22,44.3c0-5.3,2.5-10.2,6.7-13.3l-1.7-4.9h-6v-3.5h8.5l3.5,9.9l-1.2,0.8
				c-3.9,2.4-6.2,6.6-6.2,11.1c0,7.2,5.9,13.1,13.1,13.1c7.2,0,13.1-5.9,13.1-13.1h3.5C55.3,53.5,47.8,61,38.6,61z"/>
		</g>
		<g>
			<polygon class="st18" points="59.6,54.1 54.9,40.6 38.5,42 31.3,22.1 34.6,20.9 40.9,38.2 57.3,36.8 63,52.9 			"/>
		</g>
	</g>
</g>
</svg>
