<?xml version="1.0" encoding="UTF-8"?>
<!DOCTYPE svg PUBLIC "-//W3C//DTD SVG 1.1//EN" "http://www.w3.org/Graphics/SVG/1.1/DTD/svg11.dtd">
<!-- Creator: CorelDRAW -->
<svg xmlns="http://www.w3.org/2000/svg" xml:space="preserve" width="2048px" height="2048px" style="shape-rendering:geometricPrecision; text-rendering:geometricPrecision; image-rendering:optimizeQuality; fill-rule:evenodd; clip-rule:evenodd"
viewBox="0 0 2048 2048"
 xmlns:xlink="http://www.w3.org/1999/xlink">
 <defs>
  <style type="text/css">
   <![CDATA[
    .fil2 {fill:none}
    .fil5 {fill:#1565C0}
    .fil4 {fill:#1976D2}
    .fil3 {fill:#1E88E5}
    .fil9 {fill:#2B73C5}
    .fil8 {fill:#2E82D5}
    .fil7 {fill:#3392E6}
    .fil1 {fill:#F57C00}
    .fil0 {fill:#FF9800}
    .fil6 {fill:#263238;fill-rule:nonzero}
    .fil10 {fill:#3A454B;fill-rule:nonzero}
   ]]>
  </style>
   <clipPath id="id0">
    <path d="M1024 -0.0011811c565.541,0 1024,458.461 1024,1024 0,565.541 -458.461,1024 -1024,1024 -565.541,0 -1024,-458.461 -1024,-1024 0,-565.541 458.461,-1024 1024,-1024z"/>
   </clipPath>
 </defs>
 <g id="Layer_x0020_1">
  <metadata id="CorelCorpID_0Corel-Layer"/>
  <path class="fil0" d="M1024 -0.0011811c565.541,0 1024,458.461 1024,1024 0,565.541 -458.461,1024 -1024,1024 -565.541,0 -1024,-458.461 -1024,-1024 0,-565.541 458.461,-1024 1024,-1024z"/>
  <g style="clip-path:url(#id0)">
   <g id="_464388816">
    <g>
     <polygon id="_4601179761" class="fil1" points="1544.91,902.451 2680.8,2038.33 2687.28,2045.76 2693.66,2053.29 2699.94,2060.91 2706.12,2068.62 2719.88,2086.07 1584,950.183 1570.23,932.737 1564.06,925.025 1557.78,917.405 1551.4,909.881 "/>
     <polygon id="_460118000" class="fil1" points="1472.73,954.911 2608.62,2090.79 2602.78,2084.48 2596.86,2078.25 2590.86,2072.11 2584.77,2066.06 2578.61,2060.1 2572.35,2054.23 2566.02,2048.44 2559.61,2042.75 2553.12,2037.15 2546.56,2031.64 2539.91,2026.22 2533.19,2020.9 2526.4,2015.67 2519.53,2010.54 2512.59,2005.51 2505.58,2000.57 2498.5,1995.73 2491.34,1990.99 2484.12,1986.35 2476.84,1981.81 2469.48,1977.37 2462.06,1973.03 2454.58,1968.79 2447.03,1964.66 2439.42,1960.64 2431.75,1956.71 2424.02,1952.9 2416.28,1949.21 2408.49,1945.64 2400.66,1942.18 2392.78,1938.83 2384.86,1935.59 2376.91,1932.47 2368.91,1929.46 2360.88,1926.57 2352.8,1923.79 2344.7,1921.12 2336.56,1918.57 2328.38,1916.13 2320.18,1913.81 2311.94,1911.61 2303.67,1909.52 2295.38,1907.54 2287.06,1905.68 2278.72,1903.94 2270.35,1902.32 2261.95,1900.81 2253.54,1899.42 2245.1,1898.15 2236.65,1896.99 2228.17,1895.96 2219.68,1895.04 2211.18,1894.24 2202.66,1893.56 2194.12,1893 2185.58,1892.55 2177.02,1892.23 2168.46,1892.03 2159.88,1891.95 1024,756.067 1032.57,756.148 1041.14,756.35 1049.7,756.673 1058.24,757.114 1066.77,757.675 1075.3,758.356 1083.8,759.155 1092.29,760.074 1100.76,761.11 1109.22,762.265 1117.66,763.537 1126.07,764.927 1134.46,766.436 1142.83,768.06 1151.18,769.802 1159.5,771.66 1167.79,773.633 1176.06,775.724 1184.3,777.93 1192.5,780.251 1200.68,782.688 1208.82,785.239 1216.92,787.906 1225,790.686 1233.03,793.581 1241.03,796.589 1248.98,799.711 1256.9,802.947 1264.78,806.296 1272.61,809.756 1280.4,813.33 1288.14,817.016 1295.87,820.831 1303.54,824.754 1311.15,828.78 1318.7,832.912 1326.18,837.146 1333.6,841.484 1340.96,845.924 1348.24,850.464 1355.46,855.106 1362.62,859.847 1369.7,864.686 1376.71,869.624 1383.65,874.659 1390.52,879.791 1397.31,885.017 1404.03,890.339 1410.67,895.755 1417.24,901.264 1423.73,906.866 1430.14,912.559 1436.47,918.343 1442.72,924.218 1448.89,930.181 1454.98,936.232 1460.98,942.372 1466.9,948.598 "/>
     <polygon id="_460118360" class="fil1" points="1584,950.183 2719.88,2086.07 2650.24,2141.08 1514.36,1005.2 "/>
     <polygon id="_460118432" class="fil1" points="1024,756.067 2159.88,1891.95 2159.69,1891.95 2159.5,1891.95 2159.31,1891.95 2159.12,1891.95 2158.92,1891.95 2158.73,1891.95 2158.54,1891.95 2158.35,1891.95 1022.47,756.064 1022.66,756.064 1022.85,756.064 1023.04,756.064 1023.23,756.066 1023.43,756.066 1023.62,756.066 1023.81,756.067 "/>
     <polygon id="_460118504" class="fil1" points="1022.47,756.064 2158.35,1891.95 2149.8,1892.01 2141.25,1892.19 2132.72,1892.48 2124.19,1892.9 2115.68,1893.44 2107.18,1894.09 2098.69,1894.87 2090.22,1895.76 2081.77,1896.77 2073.33,1897.89 2064.91,1899.14 2056.51,1900.5 2048.13,1901.97 2039.78,1903.57 2031.45,1905.28 2023.14,1907.1 2014.87,1909.05 2006.61,1911.1 1998.39,1913.28 1990.2,1915.56 1982.04,1917.97 1973.91,1920.48 1965.81,1923.11 1957.75,1925.86 1949.73,1928.72 1941.74,1931.69 1933.8,1934.77 1925.89,1937.97 1918.02,1941.28 1910.2,1944.71 1902.42,1948.24 1894.68,1951.89 1887,1955.65 1879.37,1959.51 1871.81,1963.47 1864.31,1967.54 1856.87,1971.71 1849.49,1975.99 1842.18,1980.36 1834.93,1984.83 1827.75,1989.41 1820.63,1994.08 1813.59,1998.85 1806.61,2003.71 1799.7,2008.68 1792.86,2013.73 1786.1,2018.89 1779.41,2024.13 1772.79,2029.47 1766.24,2034.9 1759.78,2040.42 1753.39,2046.04 1747.07,2051.74 1740.84,2057.53 1734.68,2063.41 1728.61,2069.38 1722.62,2075.43 1716.71,2081.57 1710.88,2087.79 1705.14,2094.1 1699.48,2100.49 1693.91,2106.97 1688.43,2113.52 1683.04,2120.16 1669.11,2137.54 533.23,1001.66 547.158,984.277 552.551,977.641 558.033,971.085 563.602,964.611 569.259,958.22 575,951.911 580.826,945.687 586.735,939.549 592.728,933.494 598.803,927.527 604.958,921.648 611.191,915.857 617.504,910.155 623.895,904.542 630.363,899.019 636.906,893.588 643.525,888.25 650.217,883.003 656.983,877.851 663.819,872.794 670.727,867.832 677.705,862.966 684.752,858.197 691.867,853.524 699.049,848.951 706.297,844.478 713.61,840.105 720.987,835.831 728.428,831.66 735.93,827.592 743.493,823.626 751.117,819.765 758.8,816.009 766.536,812.36 774.316,808.825 782.141,805.401 790.007,802.09 797.914,798.891 805.862,795.806 813.849,792.834 821.873,789.975 829.933,787.23 838.028,784.599 846.157,782.083 854.318,779.681 862.511,777.393 870.733,775.221 878.985,773.163 887.264,771.221 895.569,769.395 903.9,767.685 912.253,766.092 920.631,764.614 929.029,763.254 937.448,762.01 945.885,760.883 954.34,759.875 962.812,758.984 971.298,758.21 979.798,757.556 988.312,757.02 996.837,756.602 1005.37,756.303 1013.92,756.125 "/>
     <polygon id="_460118576" class="fil1" points="533.23,1001.66 1669.11,2137.54 1599.88,2081.88 464,946 "/>
     <polygon id="_460118648" class="fil1" points="1397.16,986.176 2533.04,2122.06 2538.12,2127.59 2543.11,2133.19 2548.03,2138.86 2552.87,2144.62 2557.62,2150.44 2562.29,2156.34 2566.88,2162.32 2571.38,2168.36 2584.54,2186.3 1448.65,1050.42 1435.5,1032.48 1431,1026.44 1426.41,1020.46 1421.74,1014.56 1416.99,1008.74 1412.15,1002.98 1407.23,997.305 1402.24,991.703 "/>
     <polygon id="_460118720" class="fil1" points="1327.92,1042.26 2463.8,2178.14 2459.48,2173.7 2455.1,2169.33 2450.65,2165.02 2446.14,2160.78 2441.57,2156.61 2436.94,2152.5 2432.26,2148.47 2427.51,2144.5 2422.7,2140.6 2417.84,2136.77 2412.92,2133.02 2407.95,2129.33 2402.92,2125.72 2397.84,2122.18 2392.7,2118.71 2387.52,2115.32 2382.28,2112 2376.99,2108.76 2371.65,2105.59 2366.26,2102.5 2360.82,2099.49 2355.33,2096.55 2349.8,2093.7 1213.92,957.817 1219.45,960.672 1224.94,963.607 1230.38,966.618 1235.77,969.708 1241.11,972.874 1246.4,976.117 1251.64,979.435 1256.82,982.827 1261.96,986.294 1267.04,989.834 1272.07,993.447 1277.04,997.133 1281.96,1000.89 1286.82,1004.72 1291.63,1008.62 1296.37,1012.58 1301.06,1016.62 1305.69,1020.73 1310.26,1024.9 1314.77,1029.14 1319.22,1033.45 1323.6,1037.82 "/>
     <polygon id="_460118792" class="fil1" points="1448.65,1050.42 2584.54,2186.3 2512.88,2238.82 1377,1102.94 "/>
     <polygon id="_460118864" class="fil1" points="1213.92,957.817 2349.8,2093.7 2344.26,2090.94 2338.69,2088.27 2333.08,2085.68 2327.44,2083.18 2321.77,2080.76 2316.06,2078.43 2310.33,2076.18 2304.56,2074.01 2298.77,2071.93 2292.95,2069.93 2287.1,2068.02 2281.23,2066.2 2275.34,2064.46 2269.41,2062.81 2263.47,2061.24 2257.51,2059.76 2251.52,2058.37 2245.51,2057.07 2239.49,2055.85 2233.45,2054.72 2227.39,2053.68 2221.31,2052.72 2215.22,2051.85 2209.12,2051.07 2203,2050.38 2196.87,2049.78 2190.73,2049.27 2184.57,2048.84 2178.41,2048.51 2172.24,2048.26 2166.07,2048.11 2159.88,2048.04 1024,912.161 1030.19,912.226 1036.36,912.382 1042.53,912.628 1048.69,912.962 1054.85,913.386 1060.99,913.899 1067.12,914.501 1073.24,915.192 1079.34,915.97 1085.43,916.837 1091.51,917.793 1097.57,918.836 1103.61,919.967 1109.63,921.185 1115.64,922.49 1121.63,923.883 1127.59,925.361 1133.53,926.927 1139.45,928.579 1145.35,930.317 1151.22,932.141 1157.07,934.051 1162.89,936.047 1168.68,938.127 1174.45,940.293 1180.18,942.543 1185.88,944.878 1191.56,947.298 1197.2,949.802 1202.81,952.39 1208.38,955.061 "/>
     <polygon id="_460118936" class="fil1" points="1024,912.161 2159.88,2048.04 2159.71,2048.04 2159.53,2048.04 2159.36,2048.04 2159.18,2048.04 2159,2048.04 2158.83,2048.04 2158.65,2048.04 2158.48,2048.04 1022.6,912.159 1022.77,912.159 1022.95,912.159 1023.12,912.159 1023.3,912.16 1023.47,912.16 1023.65,912.16 1023.83,912.161 "/>
     <polygon id="_460119008" class="fil1" points="1022.6,912.159 2158.48,2048.04 2152.32,2048.09 2146.16,2048.22 2140.01,2048.44 2133.87,2048.75 2127.74,2049.15 2121.61,2049.64 2115.5,2050.22 2109.4,2050.88 2103.32,2051.63 2097.24,2052.47 2091.18,2053.4 2085.14,2054.41 2079.11,2055.52 2073.11,2056.7 2067.11,2057.98 2061.14,2059.34 2055.19,2060.79 2049.26,2062.32 2043.36,2063.94 2037.47,2065.64 2031.61,2067.44 2025.78,2069.31 2019.97,2071.27 2014.19,2073.32 2008.43,2075.45 2002.71,2077.66 1997.01,2079.96 1991.35,2082.35 1985.72,2084.81 1980.12,2087.36 1974.55,2090 1969.02,2092.72 1963.53,2095.52 1958.08,2098.39 1952.68,2101.34 1947.33,2104.37 1942.03,2107.48 1936.77,2110.66 1931.57,2113.91 1926.41,2117.24 1921.31,2120.64 1916.25,2124.11 1911.25,2127.66 1906.31,2131.27 1901.41,2134.96 1896.57,2138.71 1891.79,2142.54 1887.06,2146.43 1882.39,2150.4 1877.78,2154.43 1873.22,2158.52 1868.73,2162.68 1864.29,2166.91 1859.91,2171.2 1855.6,2175.56 1851.35,2179.98 1847.16,2184.46 1843.03,2189.01 1838.97,2193.62 1834.97,2198.29 1831.04,2203.02 1827.18,2207.81 1823.38,2212.65 1819.65,2217.56 1806.31,2235.38 670.431,1099.5 683.769,1081.68 687.499,1076.77 691.296,1071.92 695.161,1067.14 699.091,1062.4 703.088,1057.74 707.15,1053.13 711.277,1048.58 715.466,1044.1 719.718,1039.68 724.033,1035.32 728.409,1031.03 732.844,1026.8 737.34,1022.64 741.896,1018.54 746.508,1014.51 751.179,1010.55 755.907,1006.66 760.691,1002.83 765.53,999.076 770.424,995.39 775.372,991.775 780.373,988.23 785.425,984.757 790.53,981.356 795.686,978.029 800.892,974.775 806.147,971.596 811.451,968.492 816.804,965.462 822.203,962.509 827.649,959.633 833.14,956.834 838.671,954.116 844.237,951.481 849.837,948.93 855.468,946.463 861.133,944.079 866.827,941.78 872.552,939.565 878.306,937.435 884.088,935.389 889.896,933.428 895.731,931.553 901.59,929.762 907.475,928.058 913.383,926.439 919.312,924.904 925.262,923.457 931.234,922.097 937.224,920.821 943.234,919.634 949.26,918.532 955.303,917.519 961.361,916.592 967.435,915.752 973.522,915 979.621,914.336 985.733,913.759 991.855,913.272 997.987,912.871 1004.13,912.559 1010.28,912.337 1016.44,912.204 "/>
     <polygon id="_460119080" class="fil1" points="670.431,1099.5 1806.31,2235.38 1735.29,2182.11 599.413,1046.23 "/>
     <polygon id="_460119152" class="fil1" points="1262.64,1099.41 2398.52,2235.29 2401.95,2238.86 2405.33,2242.48 2408.65,2246.15 2411.93,2249.88 2415.14,2253.65 2418.31,2257.47 2421.42,2261.34 2424.47,2265.26 2427.47,2269.23 2430.41,2273.24 2443.42,2291.3 1307.54,1155.41 1294.53,1137.36 1291.59,1133.35 1288.59,1129.38 1285.54,1125.46 1282.43,1121.59 1279.26,1117.77 1276.05,1113.99 1272.77,1110.27 1269.45,1106.6 1266.07,1102.98 "/>
     <polygon id="_460119224" class="fil1" points="1196.51,1158.78 2332.39,2294.66 2329.8,2292.12 2327.17,2289.61 2324.5,2287.14 2321.8,2284.71 2319.06,2282.33 2316.29,2279.98 2313.48,2277.67 2310.64,2275.41 2307.76,2273.19 2304.85,2271.01 2301.91,2268.87 2298.94,2266.77 2295.94,2264.72 2292.9,2262.72 2289.83,2260.75 2286.74,2258.83 2283.61,2256.96 2280.45,2255.13 2277.27,2253.35 2274.05,2251.61 2270.81,2249.92 2267.58,2248.3 2264.33,2246.72 2261.05,2245.2 2257.76,2243.72 2254.45,2242.3 2251.12,2240.92 2247.77,2239.6 2244.41,2238.32 2241.03,2237.09 2237.63,2235.92 2234.21,2234.79 2230.79,2233.72 2227.34,2232.69 2223.88,2231.72 2220.41,2230.8 2216.93,2229.92 2213.43,2229.1 2209.92,2228.33 2206.4,2227.61 2202.87,2226.94 2199.33,2226.33 2195.78,2225.76 2192.22,2225.25 2188.66,2224.78 2185.08,2224.37 2181.5,2224.02 2177.91,2223.71 2174.31,2223.45 2170.71,2223.25 2167.11,2223.1 2163.5,2223 2159.88,2222.96 1024,1087.07 1027.62,1087.12 1031.22,1087.22 1034.83,1087.37 1038.43,1087.57 1042.03,1087.83 1045.62,1088.13 1049.2,1088.49 1052.77,1088.9 1056.34,1089.36 1059.9,1089.88 1063.45,1090.44 1066.99,1091.06 1070.52,1091.73 1074.04,1092.45 1077.55,1093.22 1081.05,1094.04 1084.53,1094.91 1088,1095.84 1091.46,1096.81 1094.9,1097.84 1098.33,1098.91 1101.75,1100.04 1105.15,1101.21 1108.53,1102.44 1111.89,1103.71 1115.24,1105.04 1118.57,1106.42 1121.88,1107.84 1125.17,1109.32 1128.44,1110.84 1131.7,1112.42 1134.93,1114.04 1138.17,1115.73 1141.39,1117.47 1144.57,1119.25 1147.73,1121.08 1150.86,1122.95 1153.95,1124.87 1157.02,1126.83 1160.05,1128.84 1163.06,1130.89 1166.03,1132.99 1168.97,1135.12 1171.88,1137.3 1174.76,1139.53 1177.6,1141.79 1180.4,1144.1 1183.18,1146.44 1185.92,1148.83 1188.62,1151.26 1191.28,1153.73 1193.91,1156.23 "/>
     <polygon id="_460119296" class="fil1" points="1307.54,1155.41 2443.42,2291.3 2371.36,2343.16 1235.48,1207.28 "/>
     <polygon id="_460119368" class="fil1" points="1024,1087.07 2159.88,2222.96 2158.55,2222.95 1022.67,1087.07 "/>
     <polygon id="_460119440" class="fil1" points="1022.67,1087.07 2158.55,2222.95 2154.95,2222.98 2151.35,2223.06 2147.76,2223.19 2144.17,2223.37 2140.59,2223.6 2137.02,2223.89 2133.45,2224.22 2129.88,2224.61 2126.33,2225.05 2122.78,2225.54 2119.24,2226.08 2115.72,2226.68 2112.2,2227.32 2108.69,2228.02 2105.19,2228.76 2101.7,2229.56 2098.23,2230.4 2094.76,2231.3 2091.31,2232.25 2087.88,2233.24 2084.46,2234.29 2081.05,2235.39 2077.66,2236.54 2074.28,2237.73 2070.92,2238.98 2067.58,2240.28 2064.26,2241.62 2060.95,2243.02 2057.66,2244.46 2054.39,2245.96 2051.14,2247.5 2047.91,2249.09 2044.71,2250.73 2041.54,2252.42 2038.39,2254.14 2035.27,2255.92 2032.18,2257.73 2029.12,2259.59 2026.08,2261.5 2023.08,2263.45 2020.1,2265.44 2017.16,2267.47 2014.25,2269.54 2011.37,2271.66 2008.52,2273.82 2005.7,2276.01 2002.91,2278.25 2000.16,2280.53 1997.44,2282.85 1994.75,2285.21 1992.1,2287.6 1989.48,2290.04 1986.9,2292.51 1984.36,2295.02 1981.85,2297.57 1979.37,2300.16 1976.94,2302.78 1974.54,2305.44 1972.17,2308.14 1969.85,2310.87 1967.56,2313.63 1965.32,2316.43 1963.11,2319.27 1960.94,2322.14 1947.69,2339.95 811.808,1204.07 825.06,1186.26 827.227,1183.39 829.434,1180.55 831.682,1177.75 833.968,1174.98 836.292,1172.25 838.654,1169.56 841.054,1166.9 843.492,1164.28 845.965,1161.69 848.476,1159.14 851.023,1156.63 853.603,1154.16 856.221,1151.72 858.872,1149.32 861.558,1146.97 864.277,1144.65 867.03,1142.37 869.816,1140.13 872.635,1137.93 875.485,1135.78 878.366,1133.66 881.28,1131.59 884.224,1129.55 887.198,1127.56 890.202,1125.62 893.237,1123.71 896.299,1121.85 899.39,1120.03 902.509,1118.26 905.657,1116.53 908.832,1114.85 912.034,1113.21 915.263,1111.62 918.511,1110.08 921.78,1108.58 925.068,1107.14 928.374,1105.74 931.699,1104.4 935.042,1103.1 938.401,1101.85 941.776,1100.65 945.168,1099.51 948.575,1098.41 951.996,1097.36 955.432,1096.37 958.882,1095.42 962.345,1094.52 965.82,1093.67 969.307,1092.88 972.805,1092.13 976.314,1091.44 979.834,1090.79 983.363,1090.2 986.902,1089.66 990.448,1089.17 994.004,1088.73 997.567,1088.34 1001.14,1088 1004.71,1087.72 1008.29,1087.49 1011.88,1087.3 1015.47,1087.17 1019.07,1087.1 "/>
     <polygon id="_460119512" class="fil1" points="811.808,1204.07 1947.69,2339.95 1876.35,2287.05 740.47,1151.17 "/>
     <polygon id="_460119584" class="fil1" points="1085.33,1227.56 2221.21,2363.44 2222.74,2364.93 1086.86,1229.05 "/>
     <polygon id="_460119656" class="fil1" points="1086.86,1229.05 2222.74,2364.93 2224.23,2366.45 2225.68,2368.02 2227.1,2369.61 2228.48,2371.24 2229.82,2372.91 2231.12,2374.6 2232.38,2376.33 2233.6,2378.09 2234.77,2379.88 2235.91,2381.7 2237,2383.55 2238.05,2385.42 2239.06,2387.33 2240.02,2389.26 2240.93,2391.22 2241.8,2393.2 2242.62,2395.21 2243.39,2397.24 2244.11,2399.29 2244.79,2401.37 2245.41,2403.47 2245.98,2405.59 2246.51,2407.73 2246.98,2409.9 2247.4,2412.08 2247.76,2414.28 2248.07,2416.49 2248.33,2418.73 2248.53,2420.98 2248.67,2423.24 2248.76,2425.53 2248.79,2427.82 1112.9,1291.94 1112.87,1289.64 1112.79,1287.36 1112.64,1285.1 1112.44,1282.84 1112.19,1280.61 1111.88,1278.39 1111.52,1276.19 1111.1,1274.01 1110.63,1271.85 1110.1,1269.71 1109.53,1267.59 1108.91,1265.49 1108.23,1263.41 1107.51,1261.36 1106.74,1259.32 1105.92,1257.32 1105.05,1255.33 1104.13,1253.38 1103.18,1251.45 1102.17,1249.54 1101.12,1247.66 1100.03,1245.82 1098.89,1244 1097.72,1242.21 1096.5,1240.45 1095.24,1238.72 1093.94,1237.02 1092.6,1235.36 1091.22,1233.73 1089.8,1232.13 1088.35,1230.57 "/>
     <polygon id="_460119728" class="fil1" points="1112.9,1291.94 2248.79,2427.82 2248.76,2430.12 2248.67,2432.4 2248.53,2434.67 2248.33,2436.92 2248.07,2439.15 2247.76,2441.37 2247.4,2443.57 2246.98,2445.75 2246.51,2447.91 2245.98,2450.05 2245.41,2452.17 2244.79,2454.27 2244.11,2456.35 2243.39,2458.41 2242.62,2460.44 2241.8,2462.45 2240.93,2464.43 2240.02,2466.39 2239.06,2468.32 2238.05,2470.22 2237,2472.1 2235.91,2473.95 2234.77,2475.76 2233.6,2477.55 2232.38,2479.31 2231.12,2481.04 2229.82,2482.74 2228.48,2484.4 2227.1,2486.03 2225.68,2487.63 2224.23,2489.19 2222.74,2490.72 1086.86,1354.83 1088.35,1353.31 1089.8,1351.75 1091.22,1350.15 1092.6,1348.52 1093.94,1346.86 1095.24,1345.16 1096.5,1343.43 1097.72,1341.67 1098.89,1339.88 1100.03,1338.06 1101.12,1336.22 1102.17,1334.34 1103.17,1332.44 1104.13,1330.5 1105.05,1328.55 1105.92,1326.56 1106.74,1324.56 1107.51,1322.53 1108.23,1320.47 1108.91,1318.39 1109.53,1316.29 1110.1,1314.17 1110.63,1312.03 1111.1,1309.87 1111.52,1307.69 1111.88,1305.49 1112.19,1303.27 1112.44,1301.04 1112.64,1298.78 1112.79,1296.52 1112.87,1294.24 "/>
     <polygon id="_460119800" class="fil1" points="1086.86,1354.83 2222.74,2490.72 2221.21,2492.21 2219.65,2493.66 2218.06,2495.08 2216.43,2496.45 2214.76,2497.79 2213.07,2499.09 2211.34,2500.35 2209.58,2501.57 2207.79,2502.75 2205.98,2503.88 2204.13,2504.98 2202.25,2506.02 2200.35,2507.03 2198.42,2507.99 2196.47,2508.9 2194.48,2509.77 2192.48,2510.59 2190.45,2511.36 2188.39,2512.09 2186.32,2512.76 2184.22,2513.38 2182.1,2513.96 2179.96,2514.48 2177.8,2514.95 2175.62,2515.37 2173.42,2515.73 2171.2,2516.05 2168.97,2516.3 2166.72,2516.5 2164.46,2516.65 2162.18,2516.74 2159.88,2516.76 1024,1380.88 1026.3,1380.85 1028.58,1380.76 1030.84,1380.62 1033.09,1380.42 1035.32,1380.16 1037.54,1379.85 1039.74,1379.49 1041.92,1379.07 1044.08,1378.6 1046.22,1378.08 1048.34,1377.5 1050.44,1376.88 1052.51,1376.2 1054.57,1375.48 1056.6,1374.71 1058.6,1373.89 1060.58,1373.02 1062.54,1372.11 1064.47,1371.15 1066.37,1370.14 1068.25,1369.09 1070.09,1368 1071.91,1366.87 1073.7,1365.69 1075.46,1364.47 1077.19,1363.21 1078.88,1361.91 1080.54,1360.57 1082.17,1359.19 1083.77,1357.78 1085.33,1356.32 "/>
     <polygon id="_460119872" class="fil1" points="1024,1380.88 2159.88,2516.76 2159.84,2516.76 1023.96,1380.88 "/>
     <polygon id="_460119944" class="fil1" points="1023.96,1380.88 2159.84,2516.76 2157.55,2516.74 2155.26,2516.65 2153,2516.5 2150.75,2516.31 2148.51,2516.05 2146.3,2515.74 2144.1,2515.38 2141.92,2514.96 2139.75,2514.49 2137.61,2513.96 2135.49,2513.39 2133.39,2512.77 2131.31,2512.09 2129.26,2511.37 2127.23,2510.6 2125.22,2509.78 2123.24,2508.91 2121.28,2507.99 2119.35,2507.04 2117.44,2506.03 2115.57,2504.98 2113.72,2503.89 2111.9,2502.75 2110.11,2501.58 2108.35,2500.36 2106.62,2499.1 2104.93,2497.8 2103.26,2496.46 2101.63,2495.08 2100.04,2493.66 964.155,1357.78 965.752,1359.2 967.381,1360.57 969.046,1361.91 970.742,1363.21 972.47,1364.47 974.228,1365.69 976.018,1366.87 977.838,1368.01 979.686,1369.1 981.562,1370.15 983.467,1371.15 985.397,1372.11 987.355,1373.03 989.337,1373.89 991.345,1374.71 993.376,1375.49 995.431,1376.21 997.51,1376.88 999.609,1377.51 1001.73,1378.08 1003.87,1378.6 1006.03,1379.08 1008.21,1379.49 1010.41,1379.86 1012.63,1380.17 1014.87,1380.42 1017.12,1380.62 1019.38,1380.77 1021.66,1380.85 "/>
    </g>
    <path id="_464388144" class="fil1" d="M720.439 735.962c94.2343,-45.254 197.472,-68.8453 302.029,-68.8453 0.511418,0 1.02165,0 1.53307,0.0011811 104.9,0.231496 208.423,24.163 302.821,69.9225 94.8757,45.991 178.101,112.929 243.412,195.697l13.7658 17.4461 -69.6414 55.0182 -13.7823 -17.4662c-56.9941,-72.228 -129.651,-130.589 -212.437,-170.719 -82.3442,-39.9154 -172.648,-60.7205 -264.138,-60.9497 -0.511418,-0.0011811 -1.02165,-0.00236221 -1.53307,-0.00236221 -91.2579,0 -181.397,20.4366 -263.668,59.9445 -82.2638,39.5044 -154.588,97.0489 -211.642,168.268l-13.9276 17.3847 -69.2304 -55.6619 13.8768 -17.3232c65.3752,-81.6048 148.315,-147.456 242.562,-192.715zm72.9898 141.494c71.1355,-35.6055 149.6,-54.2445 229.168,-54.2445 0.467717,0 0.936615,0.0011811 1.40433,0.00236221 79.9276,0.219685 158.695,19.1953 229.996,55.3229 71.7438,36.352 133.932,89.0859 181.503,153.944l13.1539 17.9362 -71.6564 52.5237 -13.1469 -17.9256c-39.3,-53.5831 -90.6579,-97.1635 -149.934,-127.198 -58.8815,-29.8358 -123.924,-45.437 -189.916,-45.6555 -0.467717,-0.0011811 -0.936615,-0.00236221 -1.40433,-0.00236221 -65.7603,0 -130.645,15.2374 -189.457,44.6752 -58.8166,29.439 -109.954,72.1926 -149.371,124.845l-13.3382 17.8169 -71.0174 -53.2654 13.3146 -17.7851c47.6788,-63.6875 109.562,-115.382 180.701,-150.99zm78.8363 156.408c46.6607,-23.4414 98.1639,-35.7414 150.402,-35.7414 0.445276,0 0.889371,0.0011811 1.33465,0.00236221 52.6418,0.211417 104.485,12.9095 151.342,36.8918 47.2701,24.1949 88.1257,59.2678 119.183,102.346l13.0134 18.052 -72.0556 51.8646 -12.9945 -18.0236c-22.8201,-31.6536 -52.8248,-57.4371 -87.5611,-75.2162 -34.3512,-17.5819 -72.3591,-26.7591 -110.927,-26.9646l-1.33465 -0.00472441c-38.4083,0 -76.3052,8.89725 -110.633,26.1425 -34.2933,17.2276 -64.0654,42.2552 -86.9741,73.043l-13.252 17.8099 -71.3375 -52.8957 13.2969 -17.8689c31.2024,-41.9351 71.7969,-75.9756 118.498,-99.4371zm88.8012 195.182c16.0937,-16.0937 38.3315,-26.0481 62.8949,-26.0481l0.0401575 0c24.5492,0.0106299 46.7705,9.96379 62.856,26.0481 16.0925,16.0937 26.0469,38.3303 26.0469,62.8949 0,24.5646 -9.95552,46.8012 -26.0469,62.8937 -16.0866,16.0854 -38.3067,26.0374 -62.856,26.0481l-0.0401575 0c-24.5634,0 -46.8012,-9.95434 -62.8949,-26.0481 -16.0925,-16.0925 -26.0481,-38.3303 -26.0481,-62.8937 0,-24.5646 9.95552,-46.8012 26.0481,-62.8949z"/>
   </g>
  </g>
  <path class="fil2" d="M1024 -0.0011811c565.541,0 1024,458.461 1024,1024 0,565.541 -458.461,1024 -1024,1024 -565.541,0 -1024,-458.461 -1024,-1024 0,-565.541 458.461,-1024 1024,-1024z"/>
  <path class="fil3" d="M477.877 928.677c65.3752,-81.6048 148.315,-147.456 242.562,-192.715 94.2343,-45.254 197.472,-68.8453 302.029,-68.8453 105.424,0 209.497,23.941 304.354,69.9237 94.8757,45.991 178.101,112.929 243.412,195.697l13.7658 17.4461 -69.6414 55.0182 -13.7823 -17.4662c-56.9941,-72.228 -129.651,-130.589 -212.437,-170.719 -82.8036,-40.1386 -173.656,-60.952 -265.671,-60.952 -91.2579,0 -181.397,20.4366 -263.668,59.9445 -82.2638,39.5044 -154.588,97.0489 -211.642,168.268l-13.9276 17.3847 -69.2304 -55.6619 13.8768 -17.3232z"/>
  <path class="fil4" d="M612.728 1028.45c47.6788,-63.6875 109.562,-115.382 180.701,-150.99 71.1355,-35.6055 149.6,-54.2445 229.168,-54.2445 80.4095,0 159.682,18.9862 231.401,55.3252 71.7438,36.352 133.932,89.0859 181.503,153.944l13.1539 17.9362 -71.6564 52.5237 -13.1469 -17.9256c-39.3,-53.5831 -90.6579,-97.1635 -149.934,-127.198 -59.2997,-30.0473 -124.846,-45.6579 -191.32,-45.6579 -65.7603,0 -130.645,15.2374 -189.457,44.6752 -58.8166,29.439 -109.954,72.1926 -149.371,124.845l-13.3382 17.8169 -71.0174 -53.2654 13.3146 -17.7851z"/>
  <path class="fil5" d="M753.767 1133.3c31.2024,-41.9351 71.7969,-75.9756 118.498,-99.4371 46.6607,-23.4414 98.1639,-35.7414 150.402,-35.7414 53.1,0 105.424,12.7087 152.676,36.8941 47.2701,24.1949 88.1257,59.2678 119.183,102.346l13.0134 18.052 -72.0556 51.8646 -12.9945 -18.0236c-22.8201,-31.6536 -52.8248,-57.4371 -87.5611,-75.2162 -34.7469,-17.7851 -73.2367,-26.9693 -112.262,-26.9693 -38.4083,0 -76.3052,8.89725 -110.633,26.1425 -34.2933,17.2276 -64.0654,42.2552 -86.9741,73.043l-13.252 17.8099 -71.3375 -52.8957 13.2969 -17.8689z"/>
  <path class="fil6" d="M1086.86 1229.05c-16.0925,-16.0925 -38.3303,-26.0481 -62.8949,-26.0481 -24.5646,0 -46.8012,9.95434 -62.8949,26.0481 -16.0937,16.0937 -26.0481,38.3303 -26.0481,62.8949 0,24.5634 9.95552,46.8012 26.0481,62.8937 16.0937,16.0937 38.3303,26.0481 62.8949,26.0481 24.5646,0 46.8012,-9.95434 62.8949,-26.0481 16.0925,-16.0925 26.0481,-38.3292 26.0481,-62.8937 0,-24.5646 -9.95434,-46.8012 -26.0481,-62.8949z"/>
  <path class="fil7" d="M477.877 928.677c65.3752,-81.6048 148.315,-147.456 242.562,-192.715 94.2343,-45.254 197.472,-68.8453 302.029,-68.8453l1.53307 0.00590552 0 88.9477 -1.53307 -0.00590552c-91.2579,0 -181.397,20.4366 -263.668,59.9445 -82.2638,39.5044 -154.588,97.0489 -211.642,168.268l-13.9276 17.3847 -69.2304 -55.6619 13.8768 -17.3232z"/>
  <path class="fil8" d="M612.728 1028.45c47.6788,-63.6875 109.562,-115.382 180.701,-150.99 71.1355,-35.6055 149.6,-54.2445 229.168,-54.2445l1.40433 0.00472441 0 88.9477 -1.40433 -0.00472441c-65.7603,0 -130.645,15.2374 -189.457,44.6752 -58.8166,29.439 -109.954,72.1926 -149.371,124.845l-13.3382 17.8169 -71.0174 -53.2654 13.3146 -17.7851z"/>
  <path class="fil9" d="M753.767 1133.3c31.2024,-41.9351 71.7969,-75.9756 118.498,-99.4371 46.6607,-23.4414 98.1639,-35.7414 150.402,-35.7414l1.33465 0.00472441 0 88.9477 -1.33465 -0.00472441c-38.4083,0 -76.3052,8.89725 -110.633,26.1425 -34.2933,17.2276 -64.0654,42.2552 -86.9741,73.043l-13.252 17.8099 -71.3375 -52.8957 13.2969 -17.8689z"/>
  <path class="fil10" d="M1024 1203l-0.0401575 0c-24.5634,0 -46.8012,9.95434 -62.8949,26.0481 -16.0925,16.0937 -26.0481,38.3303 -26.0481,62.8949 0,24.5634 9.95552,46.8012 26.0481,62.8937 16.0937,16.0937 38.3315,26.0481 62.8949,26.0481l0.0401575 0 0 -177.885z"/>
 </g>
</svg>
